<?xml version="1.0" encoding="utf-8"?>
<svg xmlns="http://www.w3.org/2000/svg"
	xmlns:xlink="http://www.w3.org/1999/xlink"
	width="23px" height="23px" viewBox="0 0 23 23">
<path fillRule="evenodd" d="M 14.96 13.47C 17.2 12.25 18.74 9.91 18.74 7.19 18.74 3.22 15.5-0 11.5-0 7.5-0 4.26 3.22 4.26 7.19 4.26 9.91 5.8 12.25 8.04 13.47 3.78 14.79 0.58 18.49 0.01 23 0.01 23 1.36 23 1.36 23 1.36 23 1.47 23 1.47 23 1.47 23 21.53 23 21.53 23 21.53 23 21.64 23 21.64 23 21.64 23 22.99 23 22.99 23 22.42 18.49 19.22 14.79 14.96 13.47ZM 5.7 7.19C 5.7 4.01 8.3 1.44 11.5 1.44 14.7 1.44 17.3 4.01 17.3 7.19 17.3 10.36 14.7 12.94 11.5 12.94 8.3 12.94 5.7 10.36 5.7 7.19ZM 1.8 21.56C 3.05 17.41 6.91 14.37 11.5 14.37 16.09 14.37 19.95 17.41 21.2 21.56 21.2 21.56 1.8 21.56 1.8 21.56Z" fill="rgb(210,183,15)"/></svg>