<?xml version="1.0" encoding="UTF-8"?>
<svg width="29px" height="29px" viewBox="0 0 29 29" version="1.1" xmlns="http://www.w3.org/2000/svg" xmlns:xlink="http://www.w3.org/1999/xlink">
    <!-- Generator: Sketch 44.1 (41455) - http://www.bohemiancoding.com/sketch -->
    <title>bed</title>
    <desc>Created with Sketch.</desc>
    <defs></defs>
    <g id="pages" stroke="none" stroke-width="1" fill="none" fill-rule="evenodd">
        <g id="home" transform="translate(-117.000000, -466.000000)" fill-rule="nonzero" fill="#054986">
            <g id="Group-24" transform="translate(91.000000, 198.000000)">
                <g id="Group-19" transform="translate(13.000000, 16.000000)">
                    <g id="bed" transform="translate(13.000000, 252.000000)">
                        <circle id="Oval" cx="9.66666667" cy="20.3" r="1"></circle>
                        <circle id="Oval" cx="12.5666667" cy="20.3" r="1"></circle>
                        <circle id="Oval" cx="15.4666667" cy="20.3" r="1"></circle>
                        <circle id="Oval" cx="18.3666667" cy="20.3" r="1"></circle>
                        <circle id="Oval" cx="21.2666667" cy="20.3" r="1"></circle>
                        <path d="M29,18.3666667 L29,13.5333333 L27.55,13.5333333 L27.55,13.1196 C27.55,12.0147 26.6519667,11.1166667 25.5470667,11.1166667 L3.45293333,11.1166667 C2.34851667,11.1166667 1.45,12.0147 1.45,13.1196 L1.45,13.5333333 L0,13.5333333 L0,18.3666667 L1.45,18.3666667 L1.45,20.7833333 L0.966666667,20.7833333 C0.699866667,20.7833333 0.483333333,20.9993833 0.483333333,21.2666667 C0.483333333,21.53395 0.699866667,21.75 0.966666667,21.75 L0,21.75 L0,29 L5.31666667,29 L5.31666667,27.55 L23.6833333,27.55 L23.6833333,29 L29,29 L29,21.75 L28.0333333,21.75 C28.3006167,21.75 28.5166667,21.53395 28.5166667,21.2666667 C28.5166667,20.9993833 28.3006167,20.7833333 28.0333333,20.7833333 L27.55,20.7833333 L27.55,18.3666667 L29,18.3666667 Z M28.0333333,14.5 L28.0333333,17.4 L27.55,17.4 L26.1,17.4 L26.1,14.5 L27.55,14.5 L28.0333333,14.5 Z M0.966666667,14.5 L1.45,14.5 L2.9,14.5 L2.9,17.4 L1.45,17.4 L0.966666667,17.4 L0.966666667,14.5 Z M4.35,28.0333333 L0.966666667,28.0333333 L0.966666667,22.7166667 L1.45,22.7166667 L2.9,22.7166667 L2.9,27.55 L4.35,27.55 L4.35,28.0333333 Z M5.31666667,26.5833333 L3.86666667,26.5833333 L3.86666667,22.7166667 L4.35,22.7166667 L24.65,22.7166667 L25.1333333,22.7166667 L25.1333333,26.5833333 L23.6833333,26.5833333 L5.31666667,26.5833333 Z M6.85366667,18.85 C6.70431667,18.5803 6.74636667,18.2405167 6.97691667,18.0138333 L8.90638333,16.1114333 C9.19251667,15.8291667 9.65796667,15.8291667 9.94361667,16.1114333 L11.8735667,18.0138333 C12.1041167,18.2414833 12.1456833,18.5807833 11.9963333,18.85 L7.73333333,18.85 L6.85366667,18.85 Z M6.28478333,20.3082167 C6.28961667,20.57115 6.50276667,20.7833333 6.76666667,20.7833333 C7.03346667,20.7833333 7.25,20.5668 7.25,20.3 C7.25,20.1434 7.17073333,20.0109667 7.05521667,19.9225167 C7.27126667,19.8587167 7.49698333,19.8166667 7.73333333,19.8166667 L9.66666667,19.8166667 L12.2355833,19.8166667 L12.4419667,19.8166667 L12.5666667,19.8166667 L15.4666667,19.8166667 L16.0747,19.8166667 L18.3666667,19.8166667 L21.2666667,19.8166667 C22.4339167,19.8166667 23.41025,20.6484833 23.6345167,21.75 L23.2,21.75 C23.2,21.4832 22.9834667,21.2666667 22.7166667,21.2666667 C22.4498667,21.2666667 22.2333333,21.4832 22.2333333,21.75 L20.3,21.75 C20.3,21.4832 20.0834667,21.2666667 19.8166667,21.2666667 C19.5498667,21.2666667 19.3333333,21.4832 19.3333333,21.75 L17.4,21.75 C17.4,21.4832 17.1834667,21.2666667 16.9166667,21.2666667 C16.6498667,21.2666667 16.4333333,21.4832 16.4333333,21.75 L14.5,21.75 C14.5,21.4832 14.2834667,21.2666667 14.0166667,21.2666667 C13.7498667,21.2666667 13.5333333,21.4832 13.5333333,21.75 L11.6,21.75 C11.6,21.4832 11.3834667,21.2666667 11.1166667,21.2666667 C10.8498667,21.2666667 10.6333333,21.4832 10.6333333,21.75 L8.7,21.75 C8.7,21.4832 8.48346667,21.2666667 8.21666667,21.2666667 C7.94986667,21.2666667 7.73333333,21.4832 7.73333333,21.75 L5.8,21.75 C5.8,21.5503833 5.67868333,21.3792833 5.50613333,21.3053333 C5.67288333,20.9065833 5.94451667,20.56535 6.28478333,20.3082167 Z M16.6435833,18.0138333 L18.57305,16.1114333 C18.8591833,15.8291667 19.3246333,15.8291667 19.6102833,16.1114333 L21.5402333,18.0138333 C21.7707833,18.2414833 21.81235,18.5807833 21.663,18.85 L21.2666667,18.85 L16.5203333,18.85 C16.3709833,18.5803 16.4130333,18.2405167 16.6435833,18.0138333 Z M28.0333333,28.0333333 L24.65,28.0333333 L24.65,27.55 L26.1,27.55 L26.1,22.7166667 L27.55,22.7166667 L28.0333333,22.7166667 L28.0333333,28.0333333 Z M26.5833333,20.7833333 L26.1,20.7833333 C25.8327167,20.7833333 25.6166667,20.9993833 25.6166667,21.2666667 C25.6166667,21.53395 25.8327167,21.75 26.1,21.75 L25.1333333,21.75 L24.6113333,21.75 C24.4412,20.5692167 23.6620667,19.5827333 22.6006667,19.1250167 C22.8428167,18.52085 22.7147333,17.8137333 22.2188333,17.3250833 L20.2893667,15.4226833 C19.6291333,14.77115 18.5546833,14.7706667 17.89445,15.4226833 L15.9649833,17.3250833 C15.54255,17.7412333 15.3898167,18.31495 15.50195,18.8495167 L13.0147167,18.8495167 C13.12685,18.31495 12.9746,17.74075 12.5521667,17.3250833 L10.6227,15.4226833 C9.96246667,14.77115 8.88801667,14.7706667 8.22778333,15.4226833 L6.29831667,17.3250833 C5.74635,17.8688333 5.65451667,18.6808333 6.01653333,19.3227 C5.1533,19.83455 4.53753333,20.7166333 4.38866667,21.75 L3.86666667,21.75 L2.9,21.75 C3.1668,21.75 3.38333333,21.53395 3.38333333,21.2666667 C3.38333333,20.9993833 3.1668,20.7833333 2.9,20.7833333 L2.41666667,20.7833333 L2.41666667,18.3666667 L3.86666667,18.3666667 L3.86666667,13.5333333 L2.41666667,13.5333333 L2.41666667,13.1196 C2.41666667,12.5483 2.88115,12.0833333 3.45293333,12.0833333 L25.54755,12.0833333 C26.1183667,12.0833333 26.5833333,12.5483 26.5833333,13.1196 L26.5833333,13.5333333 L25.1333333,13.5333333 L25.1333333,18.3666667 L26.5833333,18.3666667 L26.5833333,20.7833333 Z" id="Shape"></path>
                        <path d="M23.2,1.93333333 L5.8,1.93333333 L5.8,8.21666667 L23.2,8.21666667 L23.2,1.93333333 Z M22.2333333,7.25 L6.76666667,7.25 L6.76666667,2.9 L22.2333333,2.9 L22.2333333,7.25 Z" id="Shape"></path>
                        <path d="M25.1333333,0 L3.86666667,0 L3.86666667,10.15 L25.1333333,10.15 L25.1333333,0 Z M24.1666667,9.18333333 L4.83333333,9.18333333 L4.83333333,0.966666667 L24.1666667,0.966666667 L24.1666667,9.18333333 Z" id="Shape"></path>
                        <path d="M8.7,6.28333333 C8.82373333,6.28333333 8.94746667,6.23596667 9.04171667,6.14171667 L10.15,5.03343333 L11.2582833,6.14171667 C11.3525333,6.23596667 11.4762667,6.28333333 11.6,6.28333333 C11.7237333,6.28333333 11.8474667,6.23596667 11.9417167,6.14171667 L13.05,5.03343333 L14.1582833,6.14171667 C14.2525333,6.23596667 14.3762667,6.28333333 14.5,6.28333333 C14.6237333,6.28333333 14.7474667,6.23596667 14.8417167,6.14171667 L15.95,5.03343333 L17.0582833,6.14171667 C17.1525333,6.23596667 17.2762667,6.28333333 17.4,6.28333333 C17.5237333,6.28333333 17.6474667,6.23596667 17.7417167,6.14171667 L18.85,5.03343333 L19.9582833,6.14171667 C20.0525333,6.23596667 20.1762667,6.28333333 20.3,6.28333333 C20.4237333,6.28333333 20.5474667,6.23596667 20.6417167,6.14171667 C20.8307,5.95273333 20.8307,5.64726667 20.6417167,5.45828333 L19.1917167,4.00828333 C19.0027333,3.8193 18.6972667,3.8193 18.5082833,4.00828333 L17.4,5.11656667 L16.2917167,4.00828333 C16.1027333,3.8193 15.7972667,3.8193 15.6082833,4.00828333 L14.5,5.11656667 L13.3917167,4.00828333 C13.2027333,3.8193 12.8972667,3.8193 12.7082833,4.00828333 L11.6,5.11656667 L10.4917167,4.00828333 C10.3027333,3.8193 9.99726667,3.8193 9.80828333,4.00828333 L8.35828333,5.45828333 C8.1693,5.64726667 8.1693,5.95273333 8.35828333,6.14171667 C8.45253333,6.23596667 8.57626667,6.28333333 8.7,6.28333333 Z" id="Shape"></path>
                    </g>
                </g>
            </g>
        </g>
    </g>
</svg>