<?xml version="1.0" encoding="UTF-8"?>
<svg width="143px" height="143px" viewBox="0 0 143 143" version="1.1" xmlns="http://www.w3.org/2000/svg" xmlns:xlink="http://www.w3.org/1999/xlink">
    <!-- Generator: Sketch 44.1 (41455) - http://www.bohemiancoding.com/sketch -->
    <title>Group 27</title>
    <desc>Created with Sketch.</desc>
    <defs></defs>
    <g id="pages" stroke="none" stroke-width="1" fill="none" fill-rule="evenodd">
        <g id="home" transform="translate(-176.000000, -1276.000000)">
            <g id="Group-11" transform="translate(0.000000, 1171.000000)">
                <g id="Group-6" transform="translate(128.000000, 24.000000)">
                    <g id="Group-27" transform="translate(48.000000, 81.000000)">
                        <circle id="Oval-2" fill="#FFFFFF" cx="71.5" cy="71.5" r="71.5"></circle>
                        <path d="M58.7673692,54.7455113 C59.6291959,54.7455113 60.4910226,54.0273224 60.4910226,53.0218579 L60.4910226,50.7236534 C60.4910226,49.8618267 59.7728337,49 58.7673692,49 C57.9055425,49 57.0437158,49.7181889 57.0437158,50.7236534 L57.0437158,53.0218579 C57.0437158,54.0273224 57.7619048,54.7455113 58.7673692,54.7455113 Z M84.6221702,54.7455113 C85.4839969,54.7455113 86.3458236,54.0273224 86.3458236,53.0218579 L86.3458236,50.7236534 C86.3458236,49.8618267 85.6276347,49 84.6221702,49 C83.7603435,49 82.8985168,49.7181889 82.8985168,50.7236534 L82.8985168,53.0218579 C82.8985168,54.0273224 83.6167057,54.7455113 84.6221702,54.7455113 Z M51.8727557,92.0913349 L51.8727557,60.4910226 L92.0913349,60.4910226 L92.0913349,74.8548009 L94.9640906,74.8548009 L94.9640906,54.7455113 C94.9640906,53.1654957 93.6713505,51.8727557 92.0913349,51.8727557 L89.2185792,51.8727557 L89.2185792,54.7455113 C89.2185792,56.3255269 87.9258392,57.618267 86.3458236,57.618267 L83.4730679,57.618267 C81.8930523,57.618267 80.6003123,56.3255269 80.6003123,54.7455113 L80.6003123,51.8727557 L63.3637783,51.8727557 L63.3637783,54.7455113 C63.3637783,56.3255269 62.0710383,57.618267 60.4910226,57.618267 L57.618267,57.618267 C56.0382514,57.618267 54.7455113,56.3255269 54.7455113,54.7455113 L54.7455113,51.8727557 L51.8727557,51.8727557 C50.29274,51.8727557 49,53.1654957 49,54.7455113 L49,92.0913349 C49,93.6713505 50.29274,94.9640906 51.8727557,94.9640906 L74.8548009,94.9640906 L71.9820453,92.0913349 L51.8727557,92.0913349 Z M92.0913349,92.0913349 L89.2185792,92.0913349 L86.3458236,94.9640906 L92.0913349,94.9640906 C93.6713505,94.9640906 94.9640906,93.6713505 94.9640906,92.0913349 L94.9640906,86.3458236 L92.0913349,89.2185792 L92.0913349,92.0913349 Z M94.2459016,78.5893833 C93.2404372,77.440281 91.373146,77.440281 90.3676815,78.5893833 L80.6003123,88.3567525 L76.7220921,84.4785324 C75.7166276,83.4730679 73.8493365,83.4730679 72.843872,84.4785324 C71.8384075,85.6276347 71.8384075,87.3512881 72.843872,88.3567525 L78.7330211,94.2459016 C79.7384856,95.2513661 81.6057767,95.2513661 82.6112412,94.2459016 L94.2459016,82.6112412 C95.2513661,81.3185012 95.2513661,79.5948478 94.2459016,78.5893833 Z" id="Shape" fill="#BB2823" fill-rule="nonzero"></path>
                    </g>
                </g>
            </g>
        </g>
    </g>
</svg>