<?xml version="1.0" encoding="UTF-8"?>
<svg width="35px" height="35px" viewBox="0 0 35 35" version="1.1" xmlns="http://www.w3.org/2000/svg" xmlns:xlink="http://www.w3.org/1999/xlink">
    <!-- Generator: Sketch 44.1 (41455) - http://www.bohemiancoding.com/sketch -->
    <title>decorating</title>
    <desc>Created with Sketch.</desc>
    <defs></defs>
    <g id="pages" stroke="none" stroke-width="1" fill="none" fill-rule="evenodd">
        <g id="home" transform="translate(-117.000000, -294.000000)" fill-rule="nonzero" fill="#004583">
            <g id="Group-24" transform="translate(91.000000, 198.000000)">
                <g id="Group-19" transform="translate(13.000000, 16.000000)">
                    <g id="decorating" transform="translate(13.000000, 80.000000)">
                        <path d="M25.69,27.7286133 L25.69,22.1214355 C25.6899311,21.2810254 25.0008169,20.5972949 24.1537894,20.5972949 L4.34096457,20.5972949 C3.49393701,20.5972949 2.80475394,21.2810254 2.80475394,22.1214355 L2.80475394,27.7286133 C2.17020669,27.9426465 1.7121752,28.5392188 1.7121752,29.2403125 C1.7121752,30.1207129 2.43408465,30.8369141 3.32127953,30.8369141 L25.1734055,30.8369141 C26.0606693,30.8369141 26.7825098,30.1206445 26.7825098,29.2403125 C26.7825787,28.5392188 26.3245472,27.9426465 25.69,27.7286133 Z M3.83787402,22.1213672 C3.83787402,21.8461523 4.06351378,21.6222754 4.34096457,21.6222754 L24.1537894,21.6222754 C24.4311713,21.6222754 24.6568799,21.8461523 24.6568799,22.1213672 L24.6568799,27.6437109 L3.83787402,27.6437109 L3.83787402,22.1213672 Z M25.1733366,29.8118652 L3.32134843,29.8118652 C3.00379921,29.8118652 2.74536417,29.5554492 2.74536417,29.2403125 C2.74536417,28.9252441 3.00379921,28.6688281 3.32134843,28.6688281 L25.1734744,28.6688281 C25.4910236,28.6688281 25.7494587,28.9252441 25.7494587,29.2403125 C25.7493898,29.5554492 25.4910236,29.8118652 25.1733366,29.8118652 Z" id="Shape"></path>
                        <path d="M26.7133366,22.562627 L26.2643307,22.562627 L26.2643307,23.5876758 L26.7133366,23.5876758 C27.2974508,23.5876758 27.2974508,23.7262402 27.2974508,23.9180566 L27.2974508,30.7681445 C27.2974508,31.2352441 26.9807972,31.7880664 26.7133366,31.7880664 L1.78141732,31.7880664 C1.47633858,31.7880664 1.05606299,31.1970996 1.05606299,30.7681445 L1.05606299,23.918125 C1.05606299,23.8109375 1.05606299,23.5877441 1.78141732,23.5877441 L2.22697835,23.5877441 L2.22697835,22.5626953 L1.78141732,22.5626953 C1.32193898,22.5626953 0.943897638,22.6447949 0.657765748,22.8066699 C0.248375984,23.0382715 0.0229429134,23.4330469 0.0229429134,23.9182617 L0.0229429134,30.7683496 C0.0229429134,31.1990137 0.201525591,31.6920898 0.500679134,32.087207 C0.84992126,32.5487012 1.31684055,32.8133203 1.78148622,32.8133203 L2.22704724,32.8133203 L2.22704724,35 L3.26016732,35 L3.26016732,32.8131836 L25.7134941,32.8131836 L25.7134941,35 L26.7466142,35 L26.7466142,32.8119531 C27.7668504,32.7863867 28.3307776,31.5950195 28.3307776,30.7682129 L28.3307776,23.918125 C28.3305709,23.4118555 28.1204331,22.562627 26.7133366,22.562627 Z" id="Shape"></path>
                        <rect id="Rectangle-path" x="5.53268701" y="23.6562402" width="1.10201772" height="1.02504883"></rect>
                        <rect id="Rectangle-path" x="21.856122" y="23.6562402" width="1.17084646" height="1.02504883"></rect>
                        <rect id="Rectangle-path" x="13.7288189" y="23.6562402" width="1.10201772" height="1.02504883"></rect>
                        <path d="M0.073238189,11.8656836 L16.9490945,11.8656836 L16.9490945,0 L0.073238189,0 L0.073238189,11.8656836 Z M1.10635827,1.02504883 L15.9159744,1.02504883 L15.9159744,10.8406348 L1.10635827,10.8406348 L1.10635827,1.02504883 Z" id="Shape"></path>
                        <path d="M1.7121752,1.62606445 L1.7121752,10.2396191 L15.3102264,10.2396191 L15.3102264,1.62606445 L1.7121752,1.62606445 Z M14.2771063,9.21457031 L2.74529528,9.21457031 L2.74529528,2.65111328 L14.2770374,2.65111328 L14.2770374,9.21457031 L14.2771063,9.21457031 Z" id="Shape"></path>
                        <path d="M17.5549114,11.9247461 L17.5549114,19.4541895 L27.3288681,19.4541895 L27.3288681,11.9247461 L17.5549114,11.9247461 Z M26.295748,18.4291406 L18.5880315,18.4291406 L18.5880315,12.9497949 L26.295748,12.9497949 L26.295748,18.4291406 Z" id="Shape"></path>
                        <path d="M19.1937106,13.5508105 L19.1937106,17.8280566 L25.6898622,17.8280566 L25.6898622,13.5508105 L19.1937106,13.5508105 L19.1937106,13.5508105 Z M24.656811,16.8030078 L20.2268996,16.8030078 L20.2268996,14.5759277 L24.656811,14.5759277 L24.656811,16.8030078 Z" id="Shape"></path>
                        <path d="M22.4418898,2.1681543 C20.0483858,2.1681543 18.1012697,4.10012695 18.1012697,6.47486328 C18.1012697,8.84966797 20.0484547,10.7815723 22.4418898,10.7815723 C24.8353248,10.7815723 26.7825098,8.84953125 26.7825098,6.47486328 C26.7825787,4.10012695 24.8353937,2.1681543 22.4418898,2.1681543 Z M22.9583465,9.71639648 L22.9583465,9.16863281 L21.9252264,9.16863281 L21.9252264,9.71632813 C20.5356299,9.49908203 19.4315453,8.42016602 19.1862697,7.05017578 L19.7900886,7.05017578 L19.7900886,6.02505859 L19.1661516,6.02505859 C19.3646457,4.59580078 20.4934646,3.45727539 21.9252264,3.2334668 L21.9252264,3.97489258 L22.9583465,3.97489258 L22.9583465,3.23353516 C24.3901772,3.45727539 25.5191339,4.59586914 25.7175591,6.02512695 L25.0245866,6.02512695 L25.0245866,7.05017578 L25.6975098,7.05017578 C25.4522343,8.42023438 24.3480807,9.49921875 22.9583465,9.71639648 Z" id="Shape"></path>
                        <polygon id="Shape" points="21.9252264 4.795 21.9252264 6.02505859 20.2033366 6.02505859 20.2033366 7.05010742 22.9583465 7.05010742 22.9583465 4.795"></polygon>
                        <path d="M32.2564961,32.3170313 L32.2564961,32.3169629 L32.2564961,20.2391602 L31.223376,20.2391602 L31.223376,32.3169629 L28.4809055,32.3169629 L28.4809055,34.9680762 L34.9769882,34.9680762 L34.9769882,32.3169629 L32.2564961,32.3169629 L32.2564961,32.3170313 Z M33.943937,33.9430957 L29.5140945,33.9430957 L29.5140945,33.3420801 L33.943937,33.3420801 L33.943937,33.9430957 Z" id="Shape"></path>
                        <path d="M29.5734843,7.04641602 L29.5734843,18.9120996 L31.2233071,18.9120996 L31.2233071,19.7607813 L32.2564272,19.7607813 L32.2564272,18.912168 L33.8844094,18.912168 L33.8844094,7.04641602 L29.5734843,7.04641602 Z M32.8513583,16.2756152 L31.223376,16.2756152 L31.223376,17.3006641 L32.8513583,17.3006641 L32.8513583,17.8871191 L30.6066732,17.8871191 L30.6066732,8.07146484 L32.8513583,8.07146484 L32.8513583,16.2756152 Z" id="Shape"></path>
                        <rect id="Rectangle-path" transform="translate(7.145300, 4.848965) rotate(-45.000000) translate(-7.145300, -4.848965) " x="6.37275772" y="4.33644591" width="1.54508361" height="1.025039"></rect>
                        <rect id="Rectangle-path" transform="translate(8.511028, 5.661846) rotate(-45.000000) translate(-8.511028, -5.661846) " x="5.80702807" y="5.14932657" width="5.40799932" height="1.025039"></rect>
                        <rect id="Rectangle-path" transform="translate(9.876578, 7.017218) rotate(-45.000000) translate(-9.876578, -7.017218) " x="9.10403668" y="6.50469813" width="1.54508361" height="1.025039"></rect>
                    </g>
                </g>
            </g>
        </g>
    </g>
</svg>