<?xml version="1.0" encoding="UTF-8"?>
<svg width="24px" height="33px" viewBox="0 0 24 33" version="1.1" xmlns="http://www.w3.org/2000/svg" xmlns:xlink="http://www.w3.org/1999/xlink">
    <!-- Generator: Sketch 44.1 (41455) - http://www.bohemiancoding.com/sketch -->
    <title>frontal-teddy-bear</title>
    <desc>Created with Sketch.</desc>
    <defs></defs>
    <g id="pages" stroke="none" stroke-width="1" fill="none" fill-rule="evenodd">
        <g id="home" transform="translate(-122.000000, -730.000000)" fill-rule="nonzero" fill="#004583">
            <g id="Group-24" transform="translate(91.000000, 198.000000)">
                <g id="Group-19" transform="translate(13.000000, 16.000000)">
                    <g id="Group-22" transform="translate(18.000000, 516.000000)">
                        <g id="frontal-teddy-bear">
                            <path d="M17.7573158,32.9048551 C17.4353684,32.9048551 17.1131053,32.8459486 16.8044211,32.7279813 L16.2652105,32.5218084 C15.6156316,32.2733832 15.1038947,31.7927243 14.8242632,31.1685 C14.6897368,30.8682617 14.6167895,30.551986 14.6055789,30.2338598 C13.7456842,30.5159019 12.8485263,30.6585421 11.9295789,30.6585421 C11.0106316,30.6585421 10.1133158,30.5159019 9.25342105,30.2338598 C9.24221053,30.5518318 9.16926316,30.8681075 9.03473684,31.1685 C8.75510526,31.7928785 8.24336842,32.2733832 7.59378947,32.5218084 L7.05473684,32.7279813 C6.405,32.9764065 5.69526316,32.9626822 5.05594737,32.6897383 C4.41678947,32.4166402 3.92463158,31.9168598 3.67026316,31.2823037 L2.64442105,28.7231075 C2.12463158,27.4260841 2.77073684,25.9594346 4.08552632,25.4329766 C4.047,25.3373692 4.01036842,25.2411449 3.97563158,25.1444579 C3.59068421,25.3759206 3.009,25.6274299 2.35389474,25.5706822 C1.67463158,25.5131636 1.07573684,25.1492383 0.573631579,24.4886215 C-0.531789474,23.0344626 0.0516315789,20.4160514 1.87421053,18.6516308 C2.92278947,17.6366495 4.56994737,16.9752617 5.51068421,16.6575981 C3.68684211,15.1052103 2.54589474,12.9008411 2.54589474,10.4597664 C2.54589474,9.33421963 2.78321053,8.24583645 3.252,7.21821028 C1.96957895,6.55959813 1.16163158,5.27043925 1.16163158,3.8306215 C1.16163158,1.71846729 2.92121053,0 5.08389474,0 C6.72157895,0 8.17152632,0.991696262 8.74642105,2.45757477 C9.76563158,2.12418224 10.8344211,1.9553271 11.9295789,1.9553271 C13.0247368,1.9553271 14.0935263,2.12418224 15.1125789,2.45757477 C15.6874737,0.991696262 17.1374211,0 18.7751053,0 C20.9377895,0 22.6973684,1.71846729 22.6973684,3.8306215 C22.6973684,5.27043925 21.8894211,6.55975234 20.607,7.21821028 C21.0757895,8.24599065 21.3131053,9.33452804 21.3131053,10.4597664 C21.3131053,12.8954439 20.1773684,15.0953411 18.3607895,16.6471121 C19.2958421,16.9606121 20.9681053,17.6253925 22.0283684,18.6516308 C23.8511053,20.4158972 24.4345263,23.0343084 23.3289474,24.4886215 C22.8268421,25.1490841 22.2279474,25.5131636 21.5486842,25.5706822 C20.8716316,25.6277383 20.2755789,25.3598832 19.8912632,25.1228692 C19.8541579,25.2269579 19.815,25.3302757 19.7734737,25.4331308 C21.0884211,25.9594346 21.7345263,27.4262383 21.2145789,28.7232617 L20.1887368,31.2824579 C19.9343684,31.917014 19.4422105,32.4167944 18.8030526,32.6898925 C18.4676842,32.8329953 18.1127368,32.9048551 17.7573158,32.9048551 Z M15.4149474,29.8788785 C15.3628421,30.2085701 15.4073684,30.5464346 15.5475789,30.859472 C15.7425789,31.2949486 16.0997368,31.6303458 16.5530526,31.8036729 L17.0922632,32.0098458 C17.5454211,32.1831729 18.0407368,32.1737664 18.4867895,31.9831682 C18.9328421,31.7927243 19.2762632,31.4439112 19.4537368,31.0011869 L20.4795789,28.4419907 C20.8458947,27.528014 20.3826316,26.4934486 19.4467895,26.1356916 L18.9682105,25.9526495 C17.9772632,25.6820187 16.9421053,26.1424766 16.5011053,27.050285 L15.5783684,29.3522664 C15.5450526,29.4580514 15.5197895,29.5695421 15.5030526,29.6851963 C15.4926316,29.7578271 15.4615263,29.8244439 15.4149474,29.8788785 Z M4.89110526,25.9526495 L4.41236842,26.1358458 C3.47652632,26.4936028 3.01342105,27.5281682 3.37957895,28.4421449 L4.40542105,31.0013411 C4.58289474,31.4440654 4.92615789,31.7928785 5.37236842,31.9833224 C5.81826316,32.1737664 6.31342105,32.1833271 6.76705263,32.01 L7.30610526,31.8038271 C7.75942105,31.6305 8.11642105,31.2951028 8.31157895,30.8596262 C8.45178947,30.5465888 8.49615789,30.2085701 8.44421053,29.8790327 C8.39763158,29.8245981 8.36652632,29.7579813 8.35610526,29.6855047 C8.33936842,29.5698505 8.31410526,29.4583598 8.28078947,29.352729 L7.35789474,27.0504393 C6.91689474,26.1429393 5.88205263,25.6827897 4.89110526,25.9526495 Z M9.12947368,29.3689206 C10.0212632,29.7129533 10.962,29.8873598 11.9295789,29.8873598 C12.8971579,29.8873598 13.8378947,29.7129533 14.7296842,29.3689206 C14.7464211,29.3177243 14.7650526,29.2668364 14.7852632,29.2164112 L14.8337368,29.0956682 C14.8512632,29.0424673 14.8702105,28.9900374 14.8907368,28.9388411 L15.7056316,26.9061028 C15.7275789,26.851514 15.7509474,26.7978505 15.7757368,26.7452664 L15.8111053,26.6570607 L15.8111053,26.6570607 C16.0654737,26.0225047 16.5576316,25.5228785 17.1967895,25.2497804 C17.7841579,24.9987336 18.4313684,24.9668131 19.0365789,25.156486 C19.3875789,24.287229 19.5652105,23.3718645 19.5652105,22.430285 C19.5652105,20.5079579 18.828,18.7034439 17.4824211,17.3138972 C17.0243684,17.6196869 16.5427895,17.8847664 16.0417895,18.1074393 C16.983,19.1086963 17.5127368,20.4220654 17.5127368,21.7935701 C17.5127368,24.8001168 15.0082105,27.2461262 11.9295789,27.2461262 C8.85094737,27.2461262 6.34642105,24.8001168 6.34642105,21.7935701 C6.34642105,20.4219112 6.87615789,19.1086963 7.81736842,18.1074393 C7.31636842,17.8849206 6.83478947,17.6198411 6.37657895,17.3138972 C5.031,18.7034439 4.29378947,20.5079579 4.29378947,22.430285 C4.29378947,23.0979953 4.383,23.7524439 4.56015789,24.3866916 C4.56568421,24.4024206 4.57026316,24.4183037 4.57357895,24.4344953 C4.64352632,24.6782944 4.72642105,24.9193178 4.82226316,25.1566402 C5.42778947,24.9674299 6.07484211,24.9990421 6.66205263,25.2499346 C7.30136842,25.5230327 7.79352632,26.0226589 8.04773684,26.657215 L8.08310526,26.7454206 C8.10789474,26.7980047 8.13142105,26.851514 8.15321053,26.906257 L8.96810526,28.9389953 C8.98863158,28.9901916 9.00757895,29.0424673 9.02510526,29.0958224 L9.07357895,29.2165654 C9.09410526,29.2668364 9.11257895,29.3177243 9.12947368,29.3689206 Z M8.60936842,18.4186262 C7.67005263,19.3002196 7.13589474,20.5175187 7.13589474,21.7935701 C7.13589474,24.374972 9.28642105,26.4750981 11.9295789,26.4750981 C14.5728947,26.4750981 16.7232632,24.374972 16.7232632,21.7935701 C16.7232632,20.5176729 16.1889474,19.3002196 15.2497895,18.4186262 C14.2083158,18.7763832 13.0976842,18.9615841 11.9513684,18.9640514 C11.9493158,18.9632804 11.9475789,18.9640514 11.9458421,18.9640514 C11.9452105,18.9640514 11.9439474,18.9640514 11.9433158,18.9640514 C11.9412632,18.9640514 11.9388947,18.9640514 11.9368421,18.9640514 C11.9362105,18.9642056 11.9357368,18.9640514 11.9349474,18.9640514 C11.9311579,18.9640514 11.9278421,18.9640514 11.9240526,18.9640514 C11.9234211,18.9640514 11.9227895,18.9642056 11.9221579,18.9640514 C11.9202632,18.9640514 11.9175789,18.9640514 11.9156842,18.9640514 C11.9150526,18.9640514 11.9137895,18.9640514 11.9131579,18.9640514 C11.9115789,18.9642056 11.9115789,18.9657477 11.9076316,18.9640514 C10.7614737,18.9617383 9.65084211,18.7765374 8.60936842,18.4186262 Z M20.1249474,24.3436682 C20.3687368,24.5236262 20.9030526,24.8533178 21.4848947,24.8021215 C21.9274737,24.7631075 22.3346842,24.5031168 22.6951579,24.0289346 C23.4663158,23.0144159 23.1592105,20.8317897 21.4727368,19.199215 C20.7367895,18.4869393 19.6286842,17.9558551 18.7646842,17.6178364 C19.7977895,19.0089252 20.3546842,20.6751168 20.3546842,22.430285 C20.3546842,23.0811869 20.2776316,23.7208318 20.1249474,24.3436682 Z M5.076,17.6428178 C4.22084211,17.9820701 3.14715789,18.5049813 2.42984211,19.199215 C0.743368421,20.8317897 0.436263158,23.0145701 1.20742105,24.0289346 C1.569,24.5045047 1.97763158,24.7646495 2.42210526,24.8024299 C2.973,24.8493084 3.483,24.5530794 3.74068421,24.3700374 C3.58373684,23.7388738 3.50447368,23.0904393 3.50447368,22.430285 C3.50447368,20.6856028 4.05457895,19.028972 5.076,17.6428178 Z M11.9232632,18.1930234 C11.9273684,18.1930234 11.9317895,18.1930234 11.9358947,18.1930234 L11.9358947,18.1930234 C11.9379474,18.1933318 11.9401579,18.1930234 11.9420526,18.1930234 C11.9426842,18.1928692 11.943,18.1930234 11.9436316,18.1930234 C11.9458421,18.1930234 11.9475789,18.1930234 11.9501053,18.1930234 C11.9524737,18.1931776 11.9548421,18.1931776 11.9572105,18.1930234 C11.9584737,18.1930234 11.9597368,18.1930234 11.9608421,18.1930234 C16.6853684,18.177757 20.5236316,14.7144533 20.5236316,10.4597664 C20.5236316,9.32373364 20.2555263,8.22871963 19.7270526,7.20525701 C19.6771579,7.1087243 19.6711579,6.99615421 19.7103158,6.89499533 C19.7496316,6.79383645 19.8304737,6.71349533 19.9334211,6.67340187 C21.1329474,6.2067757 21.9078947,5.09078972 21.9078947,3.83046729 C21.9078947,2.14345794 20.5026316,0.771028037 18.7751053,0.771028037 C17.3513684,0.771028037 16.1052632,1.70921495 15.7447895,3.05234579 C15.7163684,3.15843925 15.6431053,3.24757009 15.5433158,3.29753271 C15.4435263,3.34764953 15.3265263,3.35381776 15.2218421,3.31464953 C14.1765789,2.92435514 13.0687895,2.72635514 11.9294211,2.72635514 C10.7900526,2.72635514 9.68226316,2.92435514 8.637,3.31464953 C8.53231579,3.35381776 8.41531579,3.34764953 8.31568421,3.29753271 C8.21589474,3.24757009 8.14263158,3.15843925 8.11421053,3.05234579 C7.75373684,1.70921495 6.50747368,0.771028037 5.08389474,0.771028037 C3.35652632,0.771028037 1.95110526,2.14345794 1.95110526,3.8306215 C1.95110526,5.09078972 2.72621053,6.2066215 3.92573684,6.67355607 C4.02852632,6.71364953 4.10952632,6.79383645 4.14884211,6.89514953 C4.18815789,6.99615421 4.182,7.1088785 4.13210526,7.20541121 C3.60347368,8.22887383 3.33552632,9.32373364 3.33552632,10.4599206 C3.33552632,14.7147617 7.17378947,18.1780654 11.8983158,18.1931776 C11.9003684,18.1931776 11.9024211,18.1931776 11.9046316,18.1931776 C11.9068421,18.1930234 11.9087368,18.1930234 11.9107895,18.1931776 C11.9126842,18.1931776 11.9142632,18.1930234 11.9166316,18.1931776 C11.9185263,18.193486 11.9201053,18.1933318 11.922,18.1931776 C11.9221579,18.1930234 11.9227895,18.1930234 11.9232632,18.1930234 L11.9232632,18.1930234 Z M11.9295789,17.659472 C8.93715789,17.659472 6.50257895,15.7465514 6.50257895,13.3952243 C6.50257895,11.0438972 8.93715789,9.13097664 11.9295789,9.13097664 C14.922,9.13097664 17.3565789,11.0438972 17.3565789,13.3952243 C17.3565789,15.2561776 15.8316316,16.8424907 13.7120526,17.423229 C13.6578947,17.4516028 13.5983684,17.4664065 13.5385263,17.468257 C13.0299474,17.5923925 12.4894737,17.659472 11.9295789,17.659472 Z M11.1415263,16.8378645 C11.6538947,16.9040187 12.2049474,16.9040187 12.7174737,16.8378645 L11.9295789,16.0683785 L11.1415263,16.8378645 Z M12.3243158,15.3636589 L13.6351579,16.6437196 C15.351,16.1308318 16.5671053,14.8680421 16.5671053,13.3952243 C16.5671053,11.4690421 14.4866842,9.90200467 11.9295789,9.90200467 C9.37247368,9.90200467 7.29205263,11.4688879 7.29205263,13.3950701 C7.29205263,14.8678879 8.50847368,16.1306776 10.224,16.6435654 L11.5348421,15.3635047 L11.5348421,13.6761869 C10.8048947,13.5333925 10.2615789,13.0041589 10.2615789,12.3746916 C10.2615789,11.6360467 11.0098421,11.0351075 11.9295789,11.0351075 C12.8493158,11.0351075 13.5975789,11.6358925 13.5975789,12.3746916 C13.5975789,13.0041589 13.0541053,13.5335467 12.3243158,13.6761869 L12.3243158,15.3636589 Z M11.9295789,11.8061355 C11.4533684,11.8061355 11.0510526,12.0664346 11.0510526,12.3746916 C11.0510526,12.6829486 11.4533684,12.9432477 11.9295789,12.9432477 C12.4057895,12.9432477 12.8081053,12.6829486 12.8081053,12.3746916 C12.8081053,12.0664346 12.4057895,11.8061355 11.9295789,11.8061355 Z M15.3394737,9.00483645 C14.6185263,9.00483645 14.0321053,8.43196262 14.0321053,7.72801402 C14.0321053,7.02406542 14.6185263,6.45119159 15.3394737,6.45119159 C16.0604211,6.45119159 16.647,7.02406542 16.647,7.72801402 C16.647,8.43196262 16.0604211,9.00483645 15.3394737,9.00483645 Z M15.3394737,7.22206542 C15.0538421,7.22206542 14.8215789,7.44905607 14.8215789,7.72785981 C14.8215789,8.00666355 15.054,8.23365421 15.3394737,8.23365421 C15.6251053,8.23365421 15.8575263,8.00666355 15.8575263,7.72785981 C15.8575263,7.44905607 15.6251053,7.22206542 15.3394737,7.22206542 Z M8.51968421,9.00483645 C7.79873684,9.00483645 7.21215789,8.43196262 7.21215789,7.72801402 C7.21215789,7.02406542 7.79873684,6.45119159 8.51968421,6.45119159 C9.24063158,6.45119159 9.82705263,7.02406542 9.82705263,7.72801402 C9.82705263,8.43196262 9.24063158,9.00483645 8.51968421,9.00483645 Z M8.51968421,7.22206542 C8.23405263,7.22206542 8.00163158,7.44905607 8.00163158,7.72785981 C8.00163158,8.00666355 8.23405263,8.23365421 8.51968421,8.23365421 C8.80531579,8.23365421 9.03757895,8.00666355 9.03757895,7.72785981 C9.03757895,7.44905607 8.80515789,7.22206542 8.51968421,7.22206542 Z M19.4090526,6.34941589 C19.2887368,6.34941589 19.1723684,6.29544393 19.0965789,6.19921963 C18.3977368,5.31438785 17.4484737,4.55754673 16.3511053,4.01073364 C16.2097895,3.94026168 16.1253158,3.79407477 16.137,3.63940654 C16.2378947,2.28764019 17.4047368,1.22871028 18.7934211,1.22871028 C20.2624737,1.22871028 21.4575789,2.39589252 21.4575789,3.8306215 C21.4575789,4.99101869 20.6592632,6.02080374 19.5161053,6.33492056 C19.4807368,6.34478972 19.4447368,6.34941589 19.4090526,6.34941589 Z M16.9593158,3.45281776 C17.9654211,3.99145794 18.8497895,4.69571495 19.5418421,5.50930374 C20.2157368,5.22201869 20.6679474,4.56325234 20.6679474,3.8306215 C20.6679474,2.82103738 19.827,1.99973832 18.7932632,1.99973832 C17.901,1.99973832 17.139,2.6208785 16.9593158,3.45281776 Z M4.37778947,6.31256075 C4.335,6.31256075 4.29189474,6.3057757 4.24973684,6.29158879 C3.17352632,5.93105607 2.45036842,4.94198131 2.45036842,3.8306215 C2.45036842,2.39589252 3.64547368,1.22871028 5.11468421,1.22871028 C6.48252632,1.22871028 7.62142105,2.22935047 7.764,3.55659813 C7.78121053,3.71758879 7.69373684,3.8721028 7.54484211,3.94319159 C6.40294737,4.48830841 5.41547368,5.25656075 4.689,6.16436916 C4.61257895,6.25966822 4.497,6.31256075 4.37778947,6.31256075 Z M5.11452632,1.99973832 C4.08078947,1.99973832 3.23968421,2.82103738 3.23968421,3.8306215 C3.23968421,4.52392991 3.63963158,5.14969626 4.25826316,5.45949533 C4.97542105,4.63017757 5.89105263,3.91898131 6.93268421,3.38188318 C6.72742105,2.57831776 5.98721053,1.99973832 5.11452632,1.99973832 Z" id="Shape"></path>
                        </g>
                    </g>
                </g>
            </g>
        </g>
    </g>
</svg>