<?xml version="1.0" encoding="UTF-8"?>
<svg width="38px" height="31px" viewBox="0 0 38 31" version="1.1" xmlns="http://www.w3.org/2000/svg" xmlns:xlink="http://www.w3.org/1999/xlink">
    <!-- Generator: Sketch 44.1 (41455) - http://www.bohemiancoding.com/sketch -->
    <title>furniture</title>
    <desc>Created with Sketch.</desc>
    <defs></defs>
    <g id="pages" stroke="none" stroke-width="1" fill="none" fill-rule="evenodd">
        <g id="home" transform="translate(-116.000000, -611.000000)" fill-rule="nonzero" fill="#004583">
            <g id="Group-24" transform="translate(91.000000, 198.000000)">
                <g id="Group-19" transform="translate(13.000000, 16.000000)">
                    <g id="Group-21" transform="translate(12.000000, 397.000000)">
                        <g id="furniture">
                            <path d="M18.7921225,12.9646605 L31.7359869,12.9646605 L31.7359869,7.64721485 L37.7089716,7.64721485 L37.7089716,7.07161804 L31.7359869,7.07161804 L31.7359869,6.05749867 L37.7089716,6.05749867 L37.7089716,5.48190186 L31.7359869,5.48190186 L31.7359869,0.164456233 L26.3034836,0.164456233 L18.7921225,0.164456233 L18.7921225,5.48190186 L8.89715536,5.48190186 L8.89715536,5.07076127 L9.78412691,5.07076127 L9.78412691,0.0548461538 L5.9868709,0.0548461538 L5.9868709,5.07076127 L6.87384245,5.07076127 L6.87384245,5.48190186 L0.568170678,5.48190186 L0.568170678,6.05749867 L10.4770241,6.05749867 L10.4770241,7.07161804 L0.568170678,7.07161804 L0.568170678,7.64721485 L18.7921225,7.64721485 L18.7921225,12.9646605 Z M19.3741794,12.3890637 L19.3741794,6.05749867 L24.2246258,6.05749867 L24.2246258,12.3890637 L19.3741794,12.3890637 Z M24.1276718,4.37182228 L20.3265908,4.37182228 L20.3265908,3.83733952 L24.1276718,3.83733952 L24.1276718,4.37182228 Z M20.6769059,4.9474191 L24.7097287,4.9474191 L24.7097287,5.48190186 L20.6769059,5.48190186 L20.6769059,4.9474191 L20.6769059,4.9474191 Z M24.8066827,7.07161804 L24.8066827,6.05749867 L25.2917024,6.05749867 L25.7213435,6.05749867 L25.7213435,7.07161804 L24.8066827,7.07161804 Z M26.1232954,12.3890637 L26.1232954,11.8545809 L30.1561182,11.8545809 L30.1561182,12.3890637 L26.1232954,12.3890637 Z M29.6156368,10.7445013 L29.6156368,11.2789841 L25.582814,11.2789841 L25.582814,10.7445013 L29.6156368,10.7445013 Z M26.4143239,10.1689045 L26.4143239,9.63442175 L30.2104989,9.63442175 L30.2104989,10.1689045 L30.1976937,10.1689045 L26.4143239,10.1689045 Z M31.15393,12.3890637 L30.7381751,12.3890637 L30.7381751,11.2789841 L30.1976937,11.2789841 L30.1976937,10.7445013 L30.7925558,10.7445013 L30.7925558,9.05882493 L25.832267,9.05882493 L25.832267,10.1689045 L25.0007571,10.1689045 L25.0007571,11.8545809 L25.5412385,11.8545809 L25.5412385,12.3890637 L24.8067659,12.3890637 L24.8067659,7.64721485 L31.15393,7.64721485 L31.15393,12.3890637 L31.15393,12.3890637 Z M31.15393,0.74005305 L31.15393,7.07161804 L26.3034836,7.07161804 L26.3034836,6.05749867 L26.3034836,4.4540504 L26.3034836,0.74005305 L31.15393,0.74005305 Z M19.3741794,0.74005305 L25.7213435,0.74005305 L25.7213435,4.4540504 L25.7213435,5.48190186 L25.2917024,5.48190186 L25.2917024,4.37182228 L24.7096455,4.37182228 L24.7096455,3.26174271 L19.7444508,3.26174271 L19.7444508,4.9474191 L20.0947659,4.9474191 L20.0947659,5.48190186 L19.3741794,5.48190186 L19.3741794,0.74005305 Z M6.56892779,0.630442971 L9.20207002,0.630442971 L9.20207002,4.49516446 L6.56892779,4.49516446 L6.56892779,0.630442971 Z M7.45589934,5.07076127 L8.31509847,5.07076127 L8.31509847,5.48190186 L7.45589934,5.48190186 L7.45589934,5.07076127 Z M11.059081,7.07161804 L11.059081,6.05749867 L18.7921225,6.05749867 L18.7921225,7.07161804 L11.059081,7.07161804 Z" id="Shape"></path>
                            <path d="M18.1789672,21.3915623 L18.1789672,11.4570902 L2.54999125,11.4570902 L2.54999125,21.3914801 L18.1789672,21.3914801 L18.1789672,21.3915623 Z M3.13204814,12.032687 L17.5969103,12.032687 L17.5969103,20.8158833 L3.13204814,20.8158833 L3.13204814,12.032687 Z" id="Shape"></path>
                            <path d="M3.83010066,20.0636605 L16.8988578,20.0636605 L16.8988578,12.7850743 L3.83010066,12.7850743 L3.83010066,20.0636605 Z M6.62854705,19.4880637 L6.14901532,19.4880637 L12.3451772,13.3606711 L12.8247921,13.3606711 L6.62854705,19.4880637 Z M13.6478206,13.3606711 L15.610267,13.3606711 L9.41410503,19.4880637 L7.45174179,19.4880637 L13.6478206,13.3606711 Z M10.2372998,19.4880637 L16.3168009,13.4760371 L16.3168009,19.4880637 L10.2372998,19.4880637 Z M4.41215755,13.3606711 L11.5219825,13.3606711 L5.32582057,19.4880637 L4.41215755,19.4880637 L4.41215755,13.3606711 Z" id="Shape"></path>
                            <path d="M38,23.901 L30.2785164,23.901 C30.7224595,23.5442122 30.9598556,23.0298753 30.9598556,22.3797798 C30.9598556,21.0535225 29.987488,19.9482944 28.7108709,19.7228249 L28.9399519,17.8507374 L28.3621357,17.7815013 L28.1978293,19.1243687 L27.9511204,16.7180451 L27.3720569,16.7761804 L27.675558,19.7359814 C26.4350284,19.9899841 25.499663,21.0787666 25.499663,22.3797798 C25.499663,23.0298753 25.7370591,23.5442122 26.1810022,23.901 L0,23.901 L0,30.5066313 L0.734472648,30.5066313 L0.734472648,30.9452361 L1.73228446,30.9452361 L1.73228446,30.5066313 L36.2676324,30.5066313 L36.2676324,30.9452361 L37.2654442,30.9452361 L37.2654442,30.5066313 L38,30.5066313 L38,23.901 Z M30.0848578,21.3108143 C30.1827265,21.4761751 30.2589759,21.6555146 30.3088665,21.8452971 L26.1506521,21.8452971 C26.2005427,21.6555146 26.2768753,21.4761751 26.3746608,21.3108143 L30.0848578,21.3108143 Z M26.8719869,20.7352175 C27.2423414,20.4356605 27.7151379,20.2555809 28.2297593,20.2555809 C28.7443807,20.2555809 29.2172604,20.4356605 29.5876149,20.7352175 L26.8719869,20.7352175 Z M26.1819168,22.9553767 C26.120884,22.7968408 26.0877068,22.6188992 26.0836324,22.4208939 L30.3759694,22.4208939 C30.3719781,22.6188992 30.3388009,22.7968408 30.2776849,22.9553767 L26.1819168,22.9553767 Z M26.6404945,23.5309735 L29.8190241,23.5309735 C29.4603107,23.7766711 28.9303895,23.901 28.2297593,23.901 C27.5291291,23.901 26.9992079,23.7765889 26.6404945,23.5309735 Z M12.8884026,24.4765968 L25.0007571,24.4765968 L25.0007571,29.9310345 L12.8884026,29.9310345 L12.8884026,24.4765968 Z M12.3063457,24.4765968 L12.3063457,26.7516021 L0.582056893,26.7516021 L0.582056893,24.4765968 L12.3063457,24.4765968 L12.3063457,24.4765968 Z M0.582056893,27.3271167 L12.3063457,27.3271167 L12.3063457,29.9310345 L0.582056893,29.9310345 L0.582056893,27.3271167 Z M37.4179431,29.9310345 L25.582814,29.9310345 L25.582814,24.4765968 L37.4179431,24.4765968 L37.4179431,29.9310345 Z" id="Shape"></path>
                            <path d="M6.83018818,4.00302918 L8.94080963,4.00302918 L8.94080963,1.12249602 L6.83018818,1.12249602 L6.83018818,4.00302918 Z M7.41224508,1.69809284 L8.35875274,1.69809284 L8.35875274,3.42743236 L7.41224508,3.42743236 L7.41224508,1.69809284 Z" id="Shape"></path>
                            <rect id="Rectangle-path" x="24.0029453" y="26.6830239" width="1" height="1.04158355"></rect>
                            <rect id="Rectangle-path" x="36.4450766" y="26.6830239" width="1" height="1.04158355"></rect>
                        </g>
                    </g>
                </g>
            </g>
        </g>
    </g>
</svg>