<?xml version="1.0" encoding="UTF-8"?>
<svg width="143px" height="143px" viewBox="0 0 143 143" version="1.1" xmlns="http://www.w3.org/2000/svg" xmlns:xlink="http://www.w3.org/1999/xlink">
    <!-- Generator: Sketch 44.1 (41455) - http://www.bohemiancoding.com/sketch -->
    <title>Group 28</title>
    <desc>Created with Sketch.</desc>
    <defs></defs>
    <g id="pages" stroke="none" stroke-width="1" fill="none" fill-rule="evenodd">
        <g id="home" transform="translate(-491.000000, -1276.000000)">
            <g id="Group-11" transform="translate(0.000000, 1171.000000)">
                <g id="Group-6" transform="translate(128.000000, 24.000000)">
                    <g id="Group-28" transform="translate(363.000000, 81.000000)">
                        <circle id="Oval-2-Copy" fill="#FFFFFF" cx="71.5" cy="71.5" r="71.5"></circle>
                        <path d="M63.765625,58.1517857 L58.6897321,58.1517857 C57.3361607,58.1517857 56.1517857,59.3361607 56.1517857,60.6897321 L56.1517857,65.765625 C56.1517857,67.1191964 57.3361607,68.3035714 58.6897321,68.3035714 L63.765625,68.3035714 C65.1191964,68.3035714 66.3035714,67.1191964 66.3035714,65.765625 L66.3035714,60.6897321 C66.3035714,59.3361607 65.1191964,58.1517857 63.765625,58.1517857 Z M62.9196429,64.9196429 L59.5357143,64.9196429 L59.5357143,61.5357143 L62.9196429,61.5357143 L62.9196429,64.9196429 Z M80.6852679,58.1517857 L75.609375,58.1517857 C74.2558036,58.1517857 73.0714286,59.3361607 73.0714286,60.6897321 L73.0714286,65.765625 C73.0714286,67.1191964 74.2558036,68.3035714 75.609375,68.3035714 L80.6852679,68.3035714 C82.0388393,68.3035714 83.2232143,67.1191964 83.2232143,65.765625 L83.2232143,60.6897321 C83.2232143,59.3361607 82.0388393,58.1517857 80.6852679,58.1517857 Z M79.8392857,64.9196429 L76.4553571,64.9196429 L76.4553571,61.5357143 L79.8392857,61.5357143 L79.8392857,64.9196429 Z M63.765625,71.6875 L58.6897321,71.6875 C57.3361607,71.6875 56.1517857,72.871875 56.1517857,74.2254464 L56.1517857,79.3013393 C56.1517857,80.6549107 57.3361607,81.8392857 58.6897321,81.8392857 L63.765625,81.8392857 C65.1191964,81.8392857 66.3035714,80.6549107 66.3035714,79.3013393 L66.3035714,74.2254464 C66.3035714,72.871875 65.1191964,71.6875 63.765625,71.6875 Z M62.9196429,78.4553571 L59.5357143,78.4553571 L59.5357143,75.0714286 L62.9196429,75.0714286 L62.9196429,78.4553571 Z M80.6852679,71.6875 L75.609375,71.6875 C74.2558036,71.6875 73.0714286,72.871875 73.0714286,74.2254464 L73.0714286,79.3013393 C73.0714286,80.6549107 74.2558036,81.8392857 75.609375,81.8392857 L80.6852679,81.8392857 C82.0388393,81.8392857 83.2232143,80.6549107 83.2232143,79.3013393 L83.2232143,74.2254464 C83.2232143,72.871875 82.0388393,71.6875 80.6852679,71.6875 Z M79.8392857,78.4553571 L76.4553571,78.4553571 L76.4553571,75.0714286 L79.8392857,75.0714286 L79.8392857,78.4553571 Z M89.9910714,48 L49.3839286,48 C47.5227679,48 46,49.5227679 46,51.3839286 L46,98.7589286 C46,100.620089 47.5227679,102.142857 49.3839286,102.142857 L62.9196429,102.142857 C66.3035714,102.142857 66.3035714,98.7589286 66.3035714,98.7589286 L66.3035714,88.6071429 L73.0714286,88.6071429 L73.0714286,98.7589286 C73.0714286,102.142857 76.4553571,102.142857 76.4553571,102.142857 L89.9910714,102.142857 C91.8522321,102.142857 93.375,100.620089 93.375,98.7589286 L93.375,51.3839286 C93.375,49.5227679 91.8522321,48 89.9910714,48 Z M89.9910714,97.0669643 C89.9910714,98.0821429 89.3142857,98.7589286 88.2991071,98.7589286 L76.4553571,98.7589286 L76.4553571,87.7611607 C76.4553571,86.4075893 75.2709821,85.2232143 73.9174107,85.2232143 L65.4575893,85.2232143 C64.1040179,85.2232143 62.9196429,86.4075893 62.9196429,87.7611607 L62.9196429,98.7589286 L51.0758929,98.7589286 C50.0607143,98.7589286 49.3839286,98.0821429 49.3839286,97.0669643 L49.3839286,53.0758929 C49.3839286,52.0607143 50.0607143,51.3839286 51.0758929,51.3839286 L88.2991071,51.3839286 C89.3142857,51.3839286 89.9910714,52.0607143 89.9910714,53.0758929 L89.9910714,97.0669643 Z" id="Shape" fill="#BB2823" fill-rule="nonzero"></path>
                    </g>
                </g>
            </g>
        </g>
    </g>
</svg>