<?xml version="1.0" encoding="UTF-8"?>
<svg width="27px" height="24px" viewBox="0 0 27 24" version="1.1" xmlns="http://www.w3.org/2000/svg" xmlns:xlink="http://www.w3.org/1999/xlink">
    <!-- Generator: Sketch 44.1 (41455) - http://www.bohemiancoding.com/sketch -->
    <title>list</title>
    <desc>Created with Sketch.</desc>
    <defs></defs>
    <g id="pages" stroke="none" stroke-width="1" fill="none" fill-rule="evenodd">
        <g id="home" transform="translate(-121.000000, -231.000000)" fill-rule="nonzero" fill="#FFFFFF">
            <g id="Group-24" transform="translate(91.000000, 198.000000)">
                <g id="Group-19" transform="translate(13.000000, 16.000000)">
                    <g id="list" transform="translate(17.000000, 17.000000)">
                        <path d="M26.9331959,1.22196796 L10.1096907,1.22196796 C10.0762887,1.22196796 10.0428866,1.24942792 10.0428866,1.28787185 L10.0428866,2.84210526 C10.0428866,2.87505721 10.0707216,2.90800915 10.1096907,2.90800915 L26.9331959,2.90800915 C26.9665979,2.90800915 27,2.8805492 27,2.84210526 L27,1.28787185 C27,1.24942792 26.9721649,1.22196796 26.9331959,1.22196796 Z" id="Shape"></path>
                        <ellipse id="Oval" cx="3.98041237" cy="12.595881" rx="2.10989691" ry="2.08146453"></ellipse>
                        <ellipse id="Oval" cx="3.98041237" cy="21.7235698" rx="2.12103093" ry="2.09244851"></ellipse>
                        <path d="M10.1096907,5.71990847 L18.0593814,5.71990847 C18.0927835,5.71990847 18.1261856,5.69244851 18.1261856,5.65400458 L18.1261856,4.09977117 C18.1261856,4.06681922 18.0983505,4.03386728 18.0593814,4.03386728 L10.1096907,4.03386728 C10.0762887,4.03386728 10.0428866,4.06132723 10.0428866,4.09977117 L10.0428866,5.65400458 C10.0484536,5.69244851 10.0762887,5.71990847 10.1096907,5.71990847 Z" id="Shape"></path>
                        <path d="M26.9331959,10.3496568 L10.1096907,10.3496568 C10.0762887,10.3496568 10.0428866,10.3771167 10.0428866,10.4155606 L10.0428866,11.9697941 C10.0428866,12.002746 10.0707216,12.0356979 10.1096907,12.0356979 L26.9331959,12.0356979 C26.9665979,12.0356979 27,12.008238 27,11.9697941 L27,10.4155606 C27,10.3771167 26.9721649,10.3496568 26.9331959,10.3496568 Z" id="Shape"></path>
                        <path d="M10.1096907,14.8475973 L18.0593814,14.8475973 C18.0927835,14.8475973 18.1261856,14.8201373 18.1261856,14.7816934 L18.1261856,13.22746 C18.1261856,13.194508 18.0983505,13.1615561 18.0593814,13.1615561 L10.1096907,13.1615561 C10.0762887,13.1615561 10.0428866,13.189016 10.0428866,13.22746 L10.0428866,14.7816934 C10.0484536,14.8146453 10.0762887,14.8475973 10.1096907,14.8475973 Z" id="Shape"></path>
                        <path d="M26.9331959,19.4718535 L10.1096907,19.4718535 C10.0762887,19.4718535 10.0428866,19.4993135 10.0428866,19.5377574 L10.0428866,21.0919908 C10.0428866,21.1249428 10.0707216,21.1578947 10.1096907,21.1578947 L26.9331959,21.1578947 C26.9665979,21.1578947 27,21.1304348 27,21.0919908 L27,19.5377574 C27,19.4993135 26.9721649,19.4718535 26.9331959,19.4718535 Z" id="Shape"></path>
                        <path d="M18.0593814,22.2892449 L10.1096907,22.2892449 C10.0762887,22.2892449 10.0428866,22.3167048 10.0428866,22.3551487 L10.0428866,23.9093822 C10.0428866,23.9423341 10.0707216,23.975286 10.1096907,23.975286 L18.0593814,23.975286 C18.0927835,23.975286 18.1261856,23.9478261 18.1261856,23.9093822 L18.1261856,22.3551487 C18.1261856,22.3167048 18.0983505,22.2892449 18.0593814,22.2892449 Z" id="Shape"></path>
                        <polygon id="Shape" points="2.97278351 3.43524027 1.51979381 1.99084668 0 3.48466819 1.4585567 4.92356979 2.96721649 6.4228833 4.4814433 4.93455378 7.96082474 1.52402746 6.45216495 0.0247139588"></polygon>
                    </g>
                </g>
            </g>
        </g>
    </g>
</svg>