<?xml version="1.0" encoding="UTF-8"?>
<svg width="143px" height="143px" viewBox="0 0 143 143" version="1.1" xmlns="http://www.w3.org/2000/svg" xmlns:xlink="http://www.w3.org/1999/xlink">
    <!-- Generator: Sketch 44.1 (41455) - http://www.bohemiancoding.com/sketch -->
    <title>Group 29</title>
    <desc>Created with Sketch.</desc>
    <defs></defs>
    <g id="pages" stroke="none" stroke-width="1" fill="none" fill-rule="evenodd">
        <g id="home" transform="translate(-806.000000, -1276.000000)">
            <g id="Group-11" transform="translate(0.000000, 1171.000000)">
                <g id="Group-6" transform="translate(128.000000, 24.000000)">
                    <g id="Group-29" transform="translate(678.000000, 81.000000)">
                        <circle id="Oval-2-Copy-2" fill="#FFFFFF" cx="71.5" cy="71.5" r="71.5"></circle>
                        <path d="M82.3904879,79.1336991 C86.0543103,76.9035462 88.4437598,72.9211305 88.4437598,68.3015282 C88.4437598,61.2924765 82.7090811,55.5577978 75.7000294,55.5577978 C68.6909777,55.5577978 62.956299,61.2924765 62.956299,68.3015282 C62.956299,72.9211305 65.3457484,76.9035462 69.0095709,79.1336991 C61.8412226,81.8417418 56.5844338,88.8507935 56.5844338,96.9749216 L94.815625,96.9749216 C94.815625,88.8507935 89.7181328,81.8417418 82.3904879,79.1336991 Z M72.5140968,81.3638519 L72.5140968,77.2221395 C68.8502743,75.9477665 66.1422316,72.4432406 66.1422316,68.3015282 C66.1422316,63.0447394 70.4432406,58.7437304 75.7000294,58.7437304 C80.9568182,58.7437304 85.2578272,63.0447394 85.2578272,68.3015282 C85.2578272,72.4432406 82.5497845,75.9477665 78.885962,77.2221395 L78.885962,81.3638519 C85.0985306,82.6382249 90.0367261,87.5764205 91.3110991,93.788989 L60.0889596,93.788989 C61.3633327,87.5764205 66.3015282,82.6382249 72.5140968,81.3638519 Z M47.3452292,84.2311912 C48.6196023,78.0186226 53.5577978,73.0804271 59.7703664,71.8060541 L59.7703664,67.6643417 C56.1065439,66.3899687 53.3985012,62.8854428 53.3985012,58.7437304 C53.3985012,53.4869416 57.6995102,49.1859326 62.956299,49.1859326 C66.1422316,49.1859326 69.0095709,50.7788989 70.7618339,53.1683484 C71.8769103,52.8497551 72.83269,52.5311618 74.1070631,52.5311618 C71.8769103,48.7080427 67.7351979,46 63.1155956,46 C56.1065439,46 50.3718652,51.7346787 50.3718652,58.7437304 C50.3718652,63.3633327 52.7613147,67.3457484 56.4251371,69.5759013 C49.2567888,72.283944 44,79.2929957 44,87.4171238 L55.7879506,87.4171238 C56.2658405,86.3020474 56.903027,85.186971 57.6995102,84.2311912 L47.3452292,84.2311912 Z" id="Shape" fill="#BB2823" fill-rule="nonzero"></path>
                    </g>
                </g>
            </g>
        </g>
    </g>
</svg>