<?xml version="1.0" encoding="UTF-8"?>
<svg width="26px" height="31px" viewBox="0 0 26 31" version="1.1" xmlns="http://www.w3.org/2000/svg" xmlns:xlink="http://www.w3.org/1999/xlink">
    <!-- Generator: Sketch 44.1 (41455) - http://www.bohemiancoding.com/sketch -->
    <title>bed (1)</title>
    <desc>Created with Sketch.</desc>
    <defs></defs>
    <g id="pages" stroke="none" stroke-width="1" fill="none" fill-rule="evenodd">
        <g id="home" transform="translate(-119.000000, -927.000000)" fill-rule="nonzero" fill="#004583">
            <g id="Group-24" transform="translate(91.000000, 198.000000)">
                <g id="Group-19" transform="translate(13.000000, 16.000000)">
                    <g id="Group-20" transform="translate(15.000000, 706.000000)">
                        <g id="bed-(1)" transform="translate(0.000000, 7.000000)">
                            <path d="M25.5475638,0 L0.452436195,0 C0.202570766,0 0,0.203714286 0,0.454990215 L0,1.9109589 C0,2.16223483 0.202570766,2.36594912 0.452436195,2.36594912 L1.44779582,2.36594912 L1.44779582,15.9852016 C1.44779582,15.9852622 1.44779582,15.9853836 1.44779582,15.9855049 L1.44779582,18.411816 C1.44779582,18.4118767 1.44779582,18.411998 1.44779582,18.4121194 L1.44779582,20.8384305 C1.44779582,20.8384912 1.44779582,20.8386125 1.44779582,20.8387339 L1.44779582,23.265045 C1.44779582,23.2651057 1.44779582,23.265227 1.44779582,23.2653483 L1.44779582,28.6340509 L1.41763341,28.6340509 C1.16776798,28.6340509 0.965197216,28.8377652 0.965197216,29.0890411 L0.965197216,30.5450098 C0.965197216,30.7962857 1.16776798,31 1.41763341,31 L24.5823666,31 C24.832232,31 25.0348028,30.7962857 25.0348028,30.5450098 L25.0348028,29.0890411 C25.0348028,28.8377652 24.832232,28.6340509 24.5823666,28.6340509 L24.5522042,28.6340509 L24.5522042,23.7506106 C24.5522042,23.7505499 24.5522042,23.7504286 24.5522042,23.7503072 L24.5522042,21.3239961 C24.5522042,21.3239354 24.5522042,21.3238141 24.5522042,21.3236928 L24.5522042,18.8973816 C24.5522042,18.8973209 24.5522042,18.8971996 24.5522042,18.8970783 L24.5522042,16.4707671 C24.5522042,16.4707065 24.5522042,16.4705851 24.5522042,16.4704638 L24.5522042,2.36594912 L25.5475638,2.36594912 C25.7974292,2.36594912 26,2.16223483 26,1.9109589 L26,0.454990215 C26,0.203714286 25.7974292,0 25.5475638,0 Z M2.67806032,14.9843444 L12.3903573,24.7514677 L11.2570348,24.7514677 L2.35266821,15.7968963 L2.35266821,14.9843444 L2.67806032,14.9843444 Z M5.09105336,14.9843444 L14.8033503,24.7514677 L13.6700278,24.7514677 L3.95773086,14.9843444 L5.09105336,14.9843444 Z M7.5040464,14.9843444 L17.2163434,24.7514677 L16.0830209,24.7514677 L6.3707239,14.9843444 L7.5040464,14.9843444 Z M9.91703944,14.9843444 L19.6293364,24.7514677 L18.4960139,24.7514677 L8.78371694,14.9843444 L9.91703944,14.9843444 Z M12.3300325,14.9843444 L22.0423295,24.7514677 L20.909007,24.7514677 L11.19671,14.9843444 L12.3300325,14.9843444 Z M14.7430255,14.9843444 L23.6473318,23.9389159 L23.6473318,24.7514677 L23.3219397,24.7514677 L13.6096427,14.9843444 L14.7430255,14.9843444 Z M17.1560186,14.9843444 L23.6473318,21.5123014 L23.6473318,22.6520215 L16.0226357,14.9843444 L17.1560186,14.9843444 Z M19.5690116,14.9843444 L23.6473318,19.0856869 L23.6473318,20.225407 L18.4356288,14.9843444 L19.5690116,14.9843444 Z M21.9820046,14.9843444 L23.6473318,16.6590724 L23.6473318,17.7987926 L20.8486218,14.9843444 L21.9820046,14.9843444 Z M23.6473318,15.3722387 L23.2616148,14.9843444 L23.6473318,14.9843444 L23.6473318,15.3722387 Z M8.84398144,24.7514677 L2.35266821,18.2235108 L2.35266821,17.0837906 L9.97736427,24.7514677 L8.84398144,24.7514677 Z M6.4309884,24.7514677 L2.35266821,20.6501252 L2.35266821,19.5104051 L7.56437123,24.7514677 L6.4309884,24.7514677 Z M4.01799536,24.7514677 L2.35266821,23.0767397 L2.35266821,21.9370196 L5.15137819,24.7514677 L4.01799536,24.7514677 Z M2.35266821,24.3635734 L2.73838515,24.7514677 L2.35266821,24.7514677 L2.35266821,24.3635734 Z M24.1299304,30.0900196 L1.87006961,30.0900196 L1.87006961,29.5440313 L24.1299304,29.5440313 L24.1299304,30.0900196 Z M2.35266821,28.6340509 L2.35266821,25.6614481 L23.6473318,25.6614481 L23.6473318,28.6340509 L2.35266821,28.6340509 Z M23.6473318,14.074364 L22.1695545,14.074364 C22.1694339,14.074364 22.1693735,14.074364 22.1692529,14.074364 L19.7565615,14.074364 C19.7564408,14.074364 19.7563805,14.074364 19.7562599,14.074364 L17.3435684,14.074364 C17.3434478,14.074364 17.3433875,14.074364 17.3432668,14.074364 L14.9305754,14.074364 C14.9304548,14.074364 14.9303944,14.074364 14.9302738,14.074364 L12.5175824,14.074364 C12.5174617,14.074364 12.5174014,14.074364 12.5172807,14.074364 L10.1045893,14.074364 C10.1044687,14.074364 10.1044084,14.074364 10.1042877,14.074364 L7.69159629,14.074364 C7.69147564,14.074364 7.69141531,14.074364 7.69129466,14.074364 L5.27860325,14.074364 C5.2784826,14.074364 5.27842227,14.074364 5.27830162,14.074364 L2.86561021,14.074364 C2.86548956,14.074364 2.86542923,14.074364 2.86530858,14.074364 L2.35266821,14.074364 L2.35266821,2.36594912 L3.66057077,2.36594912 C3.48170766,2.65726419 3.37819026,3.00014481 3.37819026,3.36692759 L3.37819026,5.79354207 C3.37819026,6.84723875 4.23064037,7.70450098 5.27842227,7.70450098 L5.38302552,7.70450098 C5.57232483,8.26808219 6.1027007,8.67514677 6.7262181,8.67514677 L10.587007,8.67514677 C11.2255452,8.67514677 11.7665986,8.24830528 11.943471,7.66355186 C12.3630905,7.5748591 12.7319165,7.34639335 13,7.02923483 C13.2680835,7.34645401 13.6369095,7.5748591 14.056529,7.66355186 C14.2334014,8.24830528 14.7744548,8.67514677 15.412993,8.67514677 L19.2737819,8.67514677 C19.8972993,8.67514677 20.4276752,8.26808219 20.6169745,7.70450098 L20.7215777,7.70450098 C21.7693596,7.70450098 22.6218097,6.84723875 22.6218097,5.79354207 L22.6218097,3.36692759 C22.6218097,3.00014481 22.5182923,2.65726419 22.3394292,2.36594912 L23.6473318,2.36594912 L23.6473318,14.074364 Z M21.7169374,3.36692759 L21.7169374,5.79354207 C21.7169374,6.34547554 21.270413,6.79452055 20.7215777,6.79452055 L20.6914153,6.79452055 L20.6914153,6.27886497 C20.6914153,5.49276321 20.055471,4.85322896 19.2737819,4.85322896 L17.3435684,4.85322896 C17.3434478,4.85322896 17.3433875,4.85322896 17.3432668,4.85322896 L15.412993,4.85322896 C14.6313039,4.85322896 13.9953596,5.49276321 13.9953596,6.27886497 L13.9953596,6.68404892 C13.673587,6.51800783 13.4524362,6.1816184 13.4524362,5.79354207 L13.4524362,3.36692759 C13.4524362,2.81499413 13.8989606,2.36594912 14.4477958,2.36594912 L20.7215777,2.36594912 C21.270413,2.36594912 21.7169374,2.81499413 21.7169374,3.36692759 Z M18.013355,7.76516634 L16.0226357,5.76320939 L17.1559582,5.76320939 L19.1466775,7.76516634 L18.013355,7.76516634 Z M14.9988631,5.97602348 C15.0208213,6.02655773 15.051949,6.07393738 15.0930302,6.11525049 L16.7337448,7.76516634 L15.412993,7.76516634 C15.1302506,7.76516634 14.900232,7.53384932 14.900232,7.24951076 L14.900232,6.27886497 C14.900232,6.16566341 14.9371508,6.06119765 14.9988631,5.97602348 Z M19.7865429,7.12174951 L18.4356288,5.76320939 L19.2737819,5.76320939 C19.5565244,5.76320939 19.7865429,5.99452642 19.7865429,6.27886497 L19.7865429,7.12174951 Z M12.5475638,3.36692759 L12.5475638,5.79354207 C12.5475638,6.18155773 12.326413,6.51794716 12.0046404,6.68404892 L12.0046404,6.27886497 C12.0046404,5.49276321 11.3686961,4.85322896 10.587007,4.85322896 L8.6567935,4.85322896 C8.65667285,4.85322896 8.65661253,4.85322896 8.65649188,4.85322896 L6.7262181,4.85322896 C5.944529,4.85322896 5.30858469,5.49276321 5.30858469,6.27886497 L5.30858469,6.79452055 L5.27842227,6.79452055 C4.72958701,6.79452055 4.28306265,6.34547554 4.28306265,5.79354207 L4.28306265,3.36692759 C4.28306265,2.81499413 4.72958701,2.36594912 5.27842227,2.36594912 L11.5522042,2.36594912 C12.1010394,2.36594912 12.5475638,2.81499413 12.5475638,3.36692759 Z M9.32658005,7.76516634 L7.33586079,5.76320939 L8.46918329,5.76320939 L10.4599026,7.76516634 L9.32658005,7.76516634 Z M6.31208817,5.97602348 C6.3340464,6.02655773 6.36517401,6.07393738 6.40625522,6.11525049 L8.04696984,7.76516634 L6.7262181,7.76516634 C6.44347564,7.76516634 6.21345708,7.53384932 6.21345708,7.24951076 L6.21345708,6.27886497 C6.21345708,6.16566341 6.25037587,6.06119765 6.31208817,5.97602348 Z M11.099768,7.12174951 L9.74885383,5.76320939 L10.587007,5.76320939 C10.8697494,5.76320939 11.099768,5.99452642 11.099768,6.27886497 L11.099768,7.12174951 Z M25.0951276,1.45596869 L20.7215777,1.45596869 L14.4477958,1.45596869 L11.5522042,1.45596869 L5.27842227,1.45596869 L0.90487239,1.45596869 L0.90487239,0.909980431 L25.0951276,0.909980431 L25.0951276,1.45596869 Z" id="Shape"></path>
                        </g>
                    </g>
                </g>
            </g>
        </g>
    </g>
</svg>