<?xml version="1.0" encoding="UTF-8"?>
<svg width="143px" height="143px" viewBox="0 0 143 143" version="1.1" xmlns="http://www.w3.org/2000/svg" xmlns:xlink="http://www.w3.org/1999/xlink">
    <!-- Generator: Sketch 44.1 (41455) - http://www.bohemiancoding.com/sketch -->
    <title>Group 30</title>
    <desc>Created with Sketch.</desc>
    <defs></defs>
    <g id="pages" stroke="none" stroke-width="1" fill="none" fill-rule="evenodd">
        <g id="home" transform="translate(-1122.000000, -1276.000000)">
            <g id="Group-11" transform="translate(0.000000, 1171.000000)">
                <g id="Group-6" transform="translate(128.000000, 24.000000)">
                    <g id="Group-30" transform="translate(994.000000, 81.000000)">
                        <circle id="Oval-2-Copy-3" fill="#FFFFFF" cx="71.5" cy="71.5" r="71.5"></circle>
                        <path d="M90.875,50 L47.125,50 C45.40625,50 44,51.40625 44,53.125 L44,96.875 C44,98.59375 45.40625,100 47.125,100 L90.875,100 C92.59375,100 94,98.59375 94,96.875 L94,53.125 C94,51.40625 92.59375,50 90.875,50 Z M90.875,96.875 L47.125,96.875 L47.125,84.375 L90.875,84.375 L90.875,96.875 Z M90.875,81.25 L47.125,81.25 L47.125,68.75 L90.875,68.75 L90.875,81.25 Z M90.875,65.625 L47.125,65.625 L47.125,53.125 L90.875,53.125 L90.875,65.625 Z M64.3125,90.625 L73.6875,90.625 C74.625,90.625 75.25,90 75.25,89.0625 C75.25,88.125 74.625,87.5 73.6875,87.5 L64.3125,87.5 C63.375,87.5 62.75,88.125 62.75,89.0625 C62.75,90 63.375,90.625 64.3125,90.625 Z M64.3125,75 L73.6875,75 C74.625,75 75.25,74.375 75.25,73.4375 C75.25,72.5 74.625,71.875 73.6875,71.875 L64.3125,71.875 C63.375,71.875 62.75,72.5 62.75,73.4375 C62.75,74.375 63.375,75 64.3125,75 Z M64.3125,59.375 L73.6875,59.375 C74.625,59.375 75.25,58.75 75.25,57.8125 C75.25,56.875 74.625,56.25 73.6875,56.25 L64.3125,56.25 C63.375,56.25 62.75,56.875 62.75,57.8125 C62.75,58.75 63.375,59.375 64.3125,59.375 Z" id="Shape" fill="#BB2823" fill-rule="nonzero"></path>
                    </g>
                </g>
            </g>
        </g>
    </g>
</svg>