<?xml version="1.0" encoding="UTF-8"?>
<svg width="37px" height="24px" viewBox="0 0 37 24" version="1.1" xmlns="http://www.w3.org/2000/svg" xmlns:xlink="http://www.w3.org/1999/xlink">
    <!-- Generator: Sketch 44.1 (41455) - http://www.bohemiancoding.com/sketch -->
    <title>truck (2)</title>
    <desc>Created with Sketch.</desc>
    <defs></defs>
    <g id="pages" stroke="none" stroke-width="1" fill="none" fill-rule="evenodd">
        <g id="page-card---1" transform="translate(-778.000000, -1235.000000)" fill-rule="nonzero" fill="#004583">
            <g id="Group-7" transform="translate(491.000000, 1222.000000)">
                <g id="Group-6" transform="translate(244.000000, 0.000000)">
                    <g id="truck-(2)" transform="translate(43.000000, 13.000000)">
                        <path d="M8.09375,19.3170732 C7.77448047,19.3170732 7.515625,19.5791707 7.515625,19.902439 C7.515625,20.2251951 7.25626367,20.4878049 6.9375,20.4878049 C6.61873633,20.4878049 6.359375,20.2251951 6.359375,19.902439 C6.359375,19.5796829 6.61873633,19.3170732 6.9375,19.3170732 C7.25676953,19.3170732 7.515625,19.0549756 7.515625,18.7317073 C7.515625,18.408439 7.25676953,18.1463415 6.9375,18.1463415 C5.98113672,18.1463415 5.203125,18.9341707 5.203125,19.902439 C5.203125,20.8707073 5.98113672,21.6585366 6.9375,21.6585366 C7.89386328,21.6585366 8.671875,20.8707073 8.671875,19.902439 C8.671875,19.5791707 8.41301953,19.3170732 8.09375,19.3170732 Z" id="Shape"></path>
                        <path d="M31.21875,19.3170732 C30.8994805,19.3170732 30.640625,19.5791707 30.640625,19.902439 C30.640625,20.2251951 30.3812637,20.4878049 30.0625,20.4878049 C29.7437363,20.4878049 29.484375,20.2251951 29.484375,19.902439 C29.484375,19.5796829 29.7437363,19.3170732 30.0625,19.3170732 C30.3817695,19.3170732 30.640625,19.0549756 30.640625,18.7317073 C30.640625,18.408439 30.3817695,18.1463415 30.0625,18.1463415 C29.1061367,18.1463415 28.328125,18.9341707 28.328125,19.902439 C28.328125,20.8707073 29.1061367,21.6585366 30.0625,21.6585366 C31.0188633,21.6585366 31.796875,20.8707073 31.796875,19.902439 C31.796875,19.5791707 31.5380195,19.3170732 31.21875,19.3170732 Z" id="Shape"></path>
                        <path d="M37,11.7073171 C37,11.5440732 36.933877,11.396561 36.8274297,11.2903902 C36.580209,10.598561 36.0793359,10.0176585 35.4021348,9.67478049 C35.3840684,9.66563415 35.3656406,9.6575122 35.346707,9.65034146 L33.4360762,8.92412195 L32.272166,4.44643902 C32.2705039,4.44 32.2687695,4.43356098 32.2668184,4.42719512 C31.897252,3.17970732 30.7845781,2.34146341 29.4981777,2.34146341 L25.4375,2.34146341 L25.4375,1.17073171 C25.4375,0.525219512 24.9187773,0 24.28125,0 L1.15625,0 C0.518722656,0 0,0.525219512 0,1.17073171 L0,17.5609756 C0,18.2064878 0.518722656,18.7317073 1.15625,18.7317073 L3.05979883,18.7317073 C3.00379297,18.9215122 2.96093945,19.1169512 2.93253906,19.3170732 L0.578125,19.3170732 C0.258855469,19.3170732 0,19.5791707 0,19.902439 C0,20.2257073 0.258855469,20.4878049 0.578125,20.4878049 L2.93261133,20.4878049 C3.21408594,22.470878 4.90242773,24 6.9375,24 C8.97257227,24 10.6609863,22.470878 10.9423887,20.4878049 L12.140625,20.4878049 C12.140625,21.4560732 12.9186367,22.2439024 13.875,22.2439024 L17.34375,22.2439024 C18.3001133,22.2439024 19.078125,21.4560732 19.078125,20.4878049 L26.0576113,20.4878049 C26.3390859,22.470878 28.0274277,24 30.0625,24 C32.0975723,24 33.7859863,22.470878 34.0673887,20.4878049 L36.421875,20.4878049 C36.7411445,20.4878049 37,20.2257073 37,19.902439 C37,19.5791707 36.7411445,19.3170732 36.421875,19.3170732 L34.0673887,19.3170732 C34.0389883,19.1169512 33.9961348,18.9215122 33.9401289,18.7317073 L35.84375,18.7317073 C36.4812773,18.7317073 37,18.2064878 37,17.5609756 L37,12.2926829 C37,12.155122 36.9905332,12.0193902 36.9723223,11.886 C36.9901719,11.8296585 37,11.7696585 37,11.7073171 Z M35.84375,15.2195122 L35.265625,15.2195122 L35.265625,14.6341463 L35.84375,14.6341463 L35.84375,15.2195122 Z M35.4028574,11.1219512 L25.4375,11.1219512 L25.4375,9.95121951 L32.8482676,9.95121951 L34.9100781,10.734878 C35.0999922,10.8349024 35.2654805,10.9669024 35.4028574,11.1219512 Z M29.4981777,3.51219512 C30.2669395,3.51219512 30.9323613,4.01114634 31.1567461,4.75478049 L32.2031523,8.7804878 L25.4375,8.7804878 L25.4375,3.51219512 L29.4981777,3.51219512 Z M3.46882227,17.5609756 L1.15625,17.5609756 L1.15625,14.6341463 L19.0784141,14.6341463 C19.3976836,14.6341463 19.6565391,14.3720488 19.6565391,14.0487805 C19.6565391,13.7255122 19.3976836,13.4634146 19.0784141,13.4634146 L1.15625,13.4634146 L1.15625,1.17073171 L24.28125,1.17073171 L24.28125,17.5609756 L17.34375,17.5609756 L13.875,17.5609756 L10.4063945,17.5609756 C10.358627,17.5609756 10.3124492,17.5674878 10.2680059,17.5785366 C9.53725586,16.5080488 8.31719531,15.804878 6.9375,15.804878 C5.55780469,15.804878 4.33781641,16.5080488 3.60699414,17.5785366 C3.56262305,17.5674878 3.51651758,17.5609756 3.46882227,17.5609756 Z M6.9375,22.8292683 C5.34360937,22.8292683 4.046875,21.5162927 4.046875,19.902439 C4.046875,18.2885854 5.34360937,16.9756098 6.9375,16.9756098 C8.53139063,16.9756098 9.828125,18.2885854 9.828125,19.902439 C9.828125,21.5162927 8.53139063,22.8292683 6.9375,22.8292683 Z M10.9423887,19.3170732 C10.9139883,19.1169512 10.8711348,18.9215122 10.8151289,18.7317073 L12.2400625,18.7317073 C12.1758906,18.9149268 12.140625,19.1119024 12.140625,19.3170732 L10.9423887,19.3170732 Z M17.921875,20.4878049 C17.921875,20.810561 17.6625137,21.0731707 17.34375,21.0731707 L13.875,21.0731707 C13.5562363,21.0731707 13.296875,20.810561 13.296875,20.4878049 L13.296875,19.9038293 C13.296875,19.9033171 13.2969473,19.902878 13.2969473,19.902439 C13.2969473,19.902 13.296875,19.9014878 13.296875,19.9010488 L13.296875,19.3170732 C13.296875,18.9943171 13.5562363,18.7317073 13.875,18.7317073 L17.34375,18.7317073 C17.6625137,18.7317073 17.921875,18.9943171 17.921875,19.3170732 L17.921875,20.4878049 Z M18.9786875,18.7317073 L24.859375,18.7317073 L26.1847988,18.7317073 C26.128793,18.9215122 26.0859395,19.1169512 26.0575391,19.3170732 L19.078125,19.3170732 C19.078125,19.1119024 19.0428594,18.9149268 18.9786875,18.7317073 Z M30.0625,22.8292683 C28.4686094,22.8292683 27.171875,21.5162927 27.171875,19.902439 C27.171875,18.2885854 28.4686094,16.9756098 30.0625,16.9756098 C31.6563906,16.9756098 32.953125,18.2885854 32.953125,19.902439 C32.953125,21.5162927 31.6563906,22.8292683 30.0625,22.8292683 Z M33.53125,17.5609756 C33.4835547,17.5609756 33.437377,17.5674878 33.3930059,17.5785366 C32.6621836,16.5080488 31.4421953,15.804878 30.0625,15.804878 C28.6828047,15.804878 27.4628164,16.5080488 26.7319941,17.5785366 C26.687623,17.5674878 26.6415176,17.5609756 26.5938223,17.5609756 L25.4375723,17.5609756 L25.4375723,12.2926829 L35.8438223,12.2926829 L35.8438223,13.4634146 L35.2656973,13.4634146 C34.6281699,13.4634146 34.1094473,13.9886341 34.1094473,14.6341463 L34.1094473,15.2195122 C34.1094473,15.8650244 34.6281699,16.3902439 35.2656973,16.3902439 L35.8438223,16.3902439 L35.8438223,17.5609756 L33.53125,17.5609756 Z" id="Shape"></path>
                        <path d="M14.453125,19.3170732 C14.3006445,19.3170732 14.1517773,19.3799268 14.0441016,19.4882927 C13.9364258,19.5973171 13.875,19.7487805 13.875,19.902439 C13.875,20.0567561 13.9364258,20.207561 14.0441016,20.3165854 C14.1517773,20.4255366 14.3006445,20.4878049 14.453125,20.4878049 C14.6056055,20.4878049 14.7544727,20.4255366 14.8621484,20.3165854 C14.9698242,20.207561 15.03125,20.0560244 15.03125,19.902439 C15.03125,19.7487073 14.9698242,19.5973171 14.8621484,19.4882927 C14.7544727,19.3799268 14.6056055,19.3170732 14.453125,19.3170732 Z" id="Shape"></path>
                        <path d="M21.3909141,14.6341463 L22.546875,14.6341463 C22.8661445,14.6341463 23.125,14.3720488 23.125,14.0487805 C23.125,13.7255122 22.8661445,13.4634146 22.546875,13.4634146 L21.3909141,13.4634146 C21.0716445,13.4634146 20.8127891,13.7255122 20.8127891,14.0487805 C20.8127891,14.3720488 21.0715723,14.6341463 21.3909141,14.6341463 Z" id="Shape"></path>
                    </g>
                </g>
            </g>
        </g>
    </g>
</svg>