<?xml version="1.0" encoding="UTF-8"?>
<svg width="32px" height="23px" viewBox="0 0 32 23" version="1.1" xmlns="http://www.w3.org/2000/svg" xmlns:xlink="http://www.w3.org/1999/xlink">
    <!-- Generator: Sketch 44.1 (41455) - http://www.bohemiancoding.com/sketch -->
    <title>user</title>
    <desc>Created with Sketch.</desc>
    <defs></defs>
    <g id="pages" stroke="none" stroke-width="1" fill="none" fill-rule="evenodd">
        <g id="page-card---1" transform="translate(-530.000000, -1235.000000)" fill-rule="nonzero" fill="#004583">
            <g id="Group-7" transform="translate(491.000000, 1222.000000)">
                <g id="Group-5">
                    <g id="user" transform="translate(39.000000, 13.000000)">
                        <path d="M11.1346939,17.4698061 C10.5142857,17.966759 10.155102,18.7121884 10.155102,19.5022161 L10.155102,22.3246537 C10.155102,22.6750693 10.442449,22.9554017 10.8016327,22.9554017 C11.1608163,22.9554017 11.4481633,22.6750693 11.4481633,22.3246537 L11.4481633,19.5022161 C11.4481633,19.0880886 11.6310204,18.7058172 11.957551,18.4445983 C14.5240816,16.3867036 17.3126531,15.0168975 17.8416327,14.7620499 C18.1289796,14.6282548 18.3118367,14.3415512 18.3118367,14.0293629 L18.3118367,10.0537396 C18.3118367,9.8434903 18.2008163,9.64598338 18.0244898,9.53130194 C17.6718367,9.30193906 17.4628571,8.91966759 17.4628571,8.51191136 L17.4628571,4.38975069 C17.4628571,2.68864266 18.88,1.30609418 20.6236735,1.30609418 L21.5314286,1.30609418 C23.275102,1.30609418 24.6922449,2.68864266 24.6922449,4.38975069 L24.6922449,8.51191136 C24.6922449,8.91966759 24.4832653,9.30193906 24.1306122,9.53130194 C23.9477551,9.64598338 23.8432653,9.8434903 23.8432653,10.0537396 L23.8432653,14.0229917 C23.8432653,14.3351801 24.0261224,14.6218837 24.3134694,14.7556787 C24.8489796,15.0105263 27.6310204,16.3803324 30.197551,18.4382271 C30.517551,18.699446 30.7069388,19.0817175 30.7069388,19.4958449 L30.7069388,22.3182825 C30.7069388,22.6686981 30.9942857,22.9490305 31.3534694,22.9490305 C31.7126531,22.9490305 32,22.6686981 32,22.3182825 L32,19.4958449 C32,18.7058172 31.6408163,17.966759 31.0204082,17.4634349 C28.6302041,15.5457064 26.0571429,14.201385 25.1363265,13.7426593 L25.1363265,10.3531856 C25.6718367,9.88171745 25.9853061,9.21274238 25.9853061,8.49916898 L25.9853061,4.37700831 C25.9853061,1.98144044 23.9869388,0.0318559557 21.5314286,0.0318559557 L20.6236735,0.0318559557 C18.1681633,0.0318559557 16.1697959,1.98144044 16.1697959,4.37700831 L16.1697959,8.49916898 C16.1697959,9.21274238 16.4832653,9.88171745 17.0187755,10.3531856 L17.0187755,13.7426593 C16.0979592,14.201385 13.5314286,15.5520776 11.1346939,17.4698061 Z" id="Shape"></path>
                        <path d="M9.3844898,4.05844875 L8.64653061,4.05844875 C6.58285714,4.05844875 4.89795918,5.69584488 4.89795918,7.71551247 L4.89795918,11.0731302 C4.89795918,11.6720222 5.15265306,12.232687 5.59020408,12.634072 L5.59020408,15.2717452 C4.78693878,15.6731302 2.74285714,16.7562327 0.84244898,18.2789474 C0.306938776,18.7058172 0,19.3429363 0,20.0246537 L0,22.3246537 C0,22.6750693 0.287346939,22.9554017 0.646530612,22.9554017 C1.00571429,22.9554017 1.29306122,22.6750693 1.29306122,22.3246537 L1.29306122,20.0246537 C1.29306122,19.7252078 1.43020408,19.4448753 1.66530612,19.2537396 C3.74857143,17.5844875 6.00163265,16.4759003 6.43918367,16.265651 C6.71346939,16.1382271 6.88979592,15.8578947 6.88979592,15.5648199 L6.88979592,12.3282548 C6.88979592,12.1180055 6.77877551,11.9204986 6.60244898,11.8058172 C6.3477551,11.6401662 6.19755102,11.366205 6.19755102,11.0731302 L6.19755102,7.71551247 C6.19755102,6.3966759 7.30122449,5.3199446 8.65306122,5.3199446 L9.39102041,5.3199446 C10.7428571,5.3199446 11.8465306,6.3966759 11.8465306,7.71551247 L11.8465306,11.0731302 C11.8465306,11.366205 11.6963265,11.6401662 11.4416327,11.8058172 C11.2587755,11.9204986 11.1542857,12.1180055 11.1542857,12.3282548 L11.1542857,14.9850416 C11.1542857,15.3354571 11.4416327,15.6157895 11.8008163,15.6157895 C12.16,15.6157895 12.4473469,15.3354571 12.4473469,14.9850416 L12.4473469,12.634072 C12.884898,12.232687 13.1395918,11.6720222 13.1395918,11.0731302 L13.1395918,7.71551247 C13.1330612,5.69584488 11.4546939,4.05844875 9.3844898,4.05844875 Z" id="Shape"></path>
                    </g>
                </g>
            </g>
        </g>
    </g>
</svg>