<?xml version="1.0" encoding="UTF-8"?>
<svg width="16px" height="17px" viewBox="0 0 16 17" version="1.1" xmlns="http://www.w3.org/2000/svg" xmlns:xlink="http://www.w3.org/1999/xlink">
    <!-- Generator: Sketch 44.1 (41455) - http://www.bohemiancoding.com/sketch -->
    <title>card</title>
    <desc>Created with Sketch.</desc>
    <defs></defs>
    <g id="pages" stroke="none" stroke-width="1" fill="none" fill-rule="evenodd">
        <g id="home" transform="translate(-645.000000, -111.000000)" fill-rule="nonzero" fill="#004583">
            <g id="card" transform="translate(645.000000, 111.000000)">
                <path d="M15.7,14.8 L10.9,10 C11.6,9 12,7.8 12,6.5 C12,3.2 9.3,0.5 6,0.5 C2.7,0.5 -1.26217745e-29,3.2 -1.26217745e-29,6.5 C-1.26217745e-29,9.8 2.7,12.5 6,12.5 C7.3,12.5 8.5,12.1 9.5,11.4 L14.3,16.2 C14.7,16.6 15.3,16.6 15.7,16.2 C16.1,15.8 16.1,15.2 15.7,14.8 Z M6,11.5 C3.2,11.5 1,9.3 1,6.5 C1,3.7 3.2,1.5 6,1.5 C8.8,1.5 11,3.7 11,6.5 C11,9.3 8.8,11.5 6,11.5 Z" id="Shape"></path>
            </g>
        </g>
    </g>
</svg>