<?xml version="1.0" encoding="UTF-8"?>
<svg width="40px" height="40px" viewBox="0 0 40 40" version="1.1" xmlns="http://www.w3.org/2000/svg" xmlns:xlink="http://www.w3.org/1999/xlink">
    <!-- Generator: Sketch 43 (38999) - http://www.bohemiancoding.com/sketch -->
    <title>clock</title>
    <desc>Created with Sketch.</desc>
    <defs></defs>
    <g id="Welcome" stroke="none" stroke-width="1" fill="none" fill-rule="evenodd">
        <g id="мери-мебель" transform="translate(-934.000000, -665.000000)" fill-rule="nonzero" fill="#01B4E1">
            <g id="clock" transform="translate(934.000000, 665.000000)">
                <path d="M20,0 C8.972,0 0,8.972 0,20 C0,31.028 8.972,40 20,40 C31.028,40 40,31.028 40,20 C40,8.972 31.028,0 20,0 Z M20,38.6666667 C9.70733333,38.6666667 1.33333333,30.2926667 1.33333333,20 C1.33333333,9.70733333 9.70733333,1.33333333 20,1.33333333 C30.2926667,1.33333333 38.6666667,9.70733333 38.6666667,20 C38.6666667,30.2926667 30.2926667,38.6666667 20,38.6666667 Z" id="Shape"></path>
                <path d="M20.6666667,17.3473333 L20.6666667,10.586 C20.6666667,10.2173333 20.368,9.91933333 20,9.91933333 C19.632,9.91933333 19.3333333,10.2173333 19.3333333,10.586 L19.3333333,17.3473333 C18.4006667,17.59 17.6706667,18.32 17.428,19.2526667 L12.6666667,19.2526667 C12.2986667,19.2526667 12,19.5506667 12,19.9193333 C12,20.288 12.2986667,20.586 12.6666667,20.586 L17.428,20.586 C17.726,21.7326667 18.7613333,22.586 20,22.586 C21.4706667,22.586 22.6666667,21.39 22.6666667,19.9193333 C22.6666667,18.68 21.8133333,17.6453333 20.6666667,17.3473333 Z M20,21.2526667 C19.2646667,21.2526667 18.6666667,20.6546667 18.6666667,19.9193333 C18.6666667,19.184 19.2646667,18.586 20,18.586 C20.7353333,18.586 21.3333333,19.184 21.3333333,19.9193333 C21.3333333,20.6546667 20.7353333,21.2526667 20,21.2526667 Z" id="Shape"></path>
                <path d="M20,6.586 C20.368,6.586 20.6666667,6.288 20.6666667,5.91933333 L20.6666667,5.25266667 C20.6666667,4.884 20.368,4.586 20,4.586 C19.632,4.586 19.3333333,4.884 19.3333333,5.25266667 L19.3333333,5.91933333 C19.3333333,6.288 19.632,6.586 20,6.586 Z" id="Shape"></path>
                <path d="M20,33.2526667 C19.632,33.2526667 19.3333333,33.5506667 19.3333333,33.9193333 L19.3333333,34.586 C19.3333333,34.9546667 19.632,35.2526667 20,35.2526667 C20.368,35.2526667 20.6666667,34.9546667 20.6666667,34.586 L20.6666667,33.9193333 C20.6666667,33.5506667 20.368,33.2526667 20,33.2526667 Z" id="Shape"></path>
                <path d="M34.6666667,19.2526667 L34,19.2526667 C33.632,19.2526667 33.3333333,19.5506667 33.3333333,19.9193333 C33.3333333,20.288 33.632,20.586 34,20.586 L34.6666667,20.586 C35.0346667,20.586 35.3333333,20.288 35.3333333,19.9193333 C35.3333333,19.5506667 35.0346667,19.2526667 34.6666667,19.2526667 Z" id="Shape"></path>
                <path d="M6,19.2526667 L5.33333333,19.2526667 C4.96533333,19.2526667 4.66666667,19.5506667 4.66666667,19.9193333 C4.66666667,20.288 4.96533333,20.586 5.33333333,20.586 L6,20.586 C6.368,20.586 6.66666667,20.288 6.66666667,19.9193333 C6.66666667,19.5506667 6.368,19.2526667 6,19.2526667 Z" id="Shape"></path>
                <path d="M29.8993333,9.07666667 L29.428,9.548 C29.1673333,9.80866667 29.1673333,10.23 29.428,10.4906667 C29.558,10.6206667 29.7286667,10.686 29.8993333,10.686 C30.07,10.686 30.2406667,10.6206667 30.3706667,10.4906667 L30.842,10.0193333 C31.1026667,9.75866667 31.1026667,9.33733333 30.842,9.07666667 C30.5813333,8.816 30.16,8.81666667 29.8993333,9.07666667 Z" id="Shape"></path>
                <path d="M9.62933333,29.3473333 L9.158,29.8186667 C8.89733333,30.0793333 8.89733333,30.5006667 9.158,30.7613333 C9.288,30.8913333 9.45866667,30.9566667 9.62933333,30.9566667 C9.8,30.9566667 9.97066667,30.8913333 10.1006667,30.7613333 L10.572,30.29 C10.8326667,30.0293333 10.8326667,29.608 10.572,29.3473333 C10.3113333,29.0866667 9.88933333,29.0873333 9.62933333,29.3473333 Z" id="Shape"></path>
                <path d="M30.3706667,29.3473333 C30.11,29.0866667 29.6886667,29.0866667 29.428,29.3473333 C29.1673333,29.608 29.1673333,30.0293333 29.428,30.29 L29.8993333,30.7613333 C30.0293333,30.8913333 30.2,30.9566667 30.3706667,30.9566667 C30.5413333,30.9566667 30.712,30.8913333 30.842,30.7613333 C31.1026667,30.5006667 31.1026667,30.0793333 30.842,29.8186667 L30.3706667,29.3473333 Z" id="Shape"></path>
                <path d="M10.1006667,9.07666667 C9.84,8.816 9.41866667,8.816 9.158,9.07666667 C8.89733333,9.33733333 8.89733333,9.75866667 9.158,10.0193333 L9.62933333,10.4906667 C9.75933333,10.6206667 9.93,10.686 10.1006667,10.686 C10.2713333,10.686 10.442,10.6206667 10.572,10.4906667 C10.8326667,10.23 10.8326667,9.80866667 10.572,9.548 L10.1006667,9.07666667 Z" id="Shape"></path>
            </g>
        </g>
    </g>
</svg>