<?xml version="1.0" encoding="UTF-8"?>
<svg width="33px" height="35px" viewBox="0 0 33 35" version="1.1" xmlns="http://www.w3.org/2000/svg" xmlns:xlink="http://www.w3.org/1999/xlink">
    <!-- Generator: Sketch 43 (38999) - http://www.bohemiancoding.com/sketch -->
    <title>walking</title>
    <desc>Created with Sketch.</desc>
    <defs></defs>
    <g id="Welcome" stroke="none" stroke-width="1" fill="none" fill-rule="evenodd">
        <g id="мери-мебель" transform="translate(-785.000000, -935.000000)" fill-rule="nonzero" fill="#01B4E1">
            <g id="walking" transform="translate(785.000000, 935.000000)">
                <path d="M32.3923772,17.0713378 L27.8702028,13.3311371 L26.9260036,11.8539967 L27.1258826,9.53673913 L27.1272918,9.51988294 C27.2251174,8.3864214 26.3803879,7.39623746 25.2523986,7.29954849 L21.5945658,6.98607023 C20.6702135,6.90682274 19.8223132,7.4533612 19.4979502,8.29090301 L21.351,8.02892977 L15.947573,10.1271739 C15.5240925,10.2916388 15.2001993,10.6579097 15.09979,11.1159532 L13.9228292,16.4880435 C13.7601779,17.2300669 14.2318078,17.9640134 14.9771851,18.1262542 C15.7244413,18.2889632 16.4590142,17.8137124 16.6208434,17.0753177 L17.639968,12.4241806 L22.5331281,10.5239967 L19.0034199,13.071388 L18.5566868,19.3527759 C18.5718363,19.4814214 18.452637,18.7132943 19.5526762,25.6972575 L16.912089,32.675602 C16.5891352,33.5289465 17.0214235,34.4817893 17.8777794,34.8038127 C18.7343701,35.1257191 19.6900783,34.6944816 20.0127972,33.8412542 L22.8078149,26.4547324 C22.9090463,26.1872575 22.9388754,25.8981271 22.8943665,25.615786 C22.8091068,25.074398 22.0637295,20.3421405 21.9538078,19.6437793 L22.8277794,19.7186957 L25.4715374,25.5498829 L27.3133132,33.6245819 C27.5161281,34.5138629 28.4039573,35.0710535 29.2963665,34.8688963 C30.1887758,34.6666221 30.7475445,33.7816722 30.5447295,32.8922742 L28.6659609,24.6552174 C28.6414164,24.547291 28.6058327,24.4420569 28.560032,24.3411538 L26.2825623,19.3177759 C26.5203737,16.5609699 26.4905445,16.9058194 26.5828505,15.8362709 L30.6323381,19.1855017 C31.2182349,19.6702341 32.087274,19.5893478 32.5733488,19.0055853 C33.0591886,18.4220569 32.978274,17.5558361 32.3923772,17.0713378 Z" id="Shape"></path>
                <path d="M12.584274,17.1018896 C12.5206228,16.5706856 12.621032,16.2370736 12.7381174,15.7030602 L10.7619929,14.5070903 C10.7619929,14.5070903 10.4099146,10.8434448 10.3420356,9.48921405 C10.2853132,8.35727425 9.59994662,7.36591973 8.46714235,7.2688796 L4.80919217,6.95540134 C3.67627046,6.8583612 2.67898932,7.69508361 2.58163345,8.82421405 L2.38198932,11.1384281 L4.75305694,9.0487291 L1.40185409,13.7658863 C1.13409609,14.1429264 1.07432028,14.6274247 1.24037722,15.0565552 L3.22554448,20.1869231 C3.50304982,20.9040134 4.3105516,21.2448829 5.0107153,20.9757692 C5.7205089,20.7027926 6.07716726,19.9070401 5.80212811,19.196388 C5.59261922,18.6551171 4.28048754,15.2639799 4.08342705,14.7545485 L7.11825267,10.4826756 L5.50219217,14.749398 L7.03886477,18.720786 C7.57461566,20.1054515 6.88924911,21.6695652 5.48774733,22.2082609 C4.09047331,22.7454348 2.52585053,22.0505853 1.98880783,20.6621739 L1.60020641,19.6579431 L1.16791815,21.5982776 C1.11683274,21.827709 1.17285053,22.0679097 1.32046975,22.2512207 C1.46808897,22.4345318 1.6911032,22.5411706 1.92691815,22.5411706 L11.4344413,22.5411706 C11.3896975,22.0069231 11.0878826,18.4009866 11.0453701,17.893194 C13.1922491,19.1926421 13.2553132,19.2991639 13.7523096,19.2991639 C13.8899466,19.2991639 14.0264093,19.2780936 14.1573523,19.2381773 C13.3067509,18.8545819 12.6980712,18.051689 12.584274,17.1018896 Z" id="Shape"></path>
                <path d="M24.0440819,6.0951505 C25.7146335,6.23831104 27.1969324,5.00558528 27.3416157,3.32874582 C27.4858292,1.65717391 26.2431032,0.185652174 24.56621,0.0419063545 C22.8893167,-0.101839465 21.4128897,1.13685619 21.2686762,2.80831104 C21.1236406,4.49076923 22.380694,5.95269231 24.0440819,6.0951505 Z" id="Shape"></path>
                <path d="M5.87670107,24.1113712 L2.52220996,24.1113712 L2.76718505,25.6667057 L0.126597865,32.6450502 C-0.196238434,33.4983946 0.235932384,34.4512375 1.09228826,34.7732609 C1.948879,35.0951672 2.90458719,34.6639298 3.22730605,33.8107023 L6.02232384,26.4242977 C6.12355516,26.1568227 6.15338434,25.8676923 6.10887544,25.5853512 L5.87670107,24.1113712 Z" id="Shape"></path>
                <path d="M11.6841139,24.1113712 L8.04753737,24.1113712 L8.68581139,25.5193311 L10.5277046,33.5940301 C10.7305196,34.483311 11.6183488,35.0405017 12.510758,34.8383445 C13.4031673,34.6360702 13.9619359,33.7511204 13.759121,32.8617224 C11.9187544,24.8036455 11.8817616,24.4260201 11.6841139,24.1113712 Z" id="Shape"></path>
                <ellipse id="Oval" cx="7.51977224" cy="3.03774247" rx="3.04762633" ry="3.03774247"></ellipse>
            </g>
        </g>
    </g>
</svg>