<?xml version="1.0" encoding="utf-8"?>
<svg xmlns="http://www.w3.org/2000/svg"
	xmlns:xlink="http://www.w3.org/1999/xlink"
	width="20px" height="18px" viewBox="0 0 20 18">
<path fillRule="evenodd" d="M 18.75 11.57C 18.75 12.28 18.19 12.86 17.5 12.86 17.5 12.86 5 12.86 5 12.86 4.31 12.86 3.75 12.28 3.75 11.57 3.75 11.57 2.08 1.29 2.08 1.29 2.08 1.29 0.62 1.29 0.62 1.29 0.28 1.29-0 1-0 0.64-0 0.29 0.28 0 0.62 0 0.62 0 3.14 0 3.14 0 3.14 0 3.35 1.29 3.35 1.29 3.35 1.29 20 1.29 20 1.29 20 1.29 20 2.57 20 2.57 20 2.57 18.75 11.57 18.75 11.57ZM 3.56 2.57C 3.56 2.57 5 11.57 5 11.57 5 11.57 17.5 11.57 17.5 11.57 17.5 11.57 18.75 2.57 18.75 2.57 18.75 2.57 3.56 2.57 3.56 2.57ZM 8.12 14.14C 9.16 14.14 10 15.01 10 16.07 10 17.14 9.16 18 8.12 18 7.09 18 6.25 17.14 6.25 16.07 6.25 15.01 7.09 14.14 8.12 14.14ZM 8.12 16.71C 8.47 16.71 8.75 16.43 8.75 16.07 8.75 15.72 8.47 15.43 8.12 15.43 7.78 15.43 7.5 15.72 7.5 16.07 7.5 16.43 7.78 16.71 8.12 16.71ZM 14.37 14.14C 15.41 14.14 16.25 15.01 16.25 16.07 16.25 17.14 15.41 18 14.37 18 13.34 18 12.5 17.14 12.5 16.07 12.5 15.01 13.34 14.14 14.37 14.14ZM 14.37 16.71C 14.72 16.71 15 16.43 15 16.07 15 15.72 14.72 15.43 14.37 15.43 14.03 15.43 13.75 15.72 13.75 16.07 13.75 16.43 14.03 16.71 14.37 16.71Z" fill="rgb(255,255,255)"/></svg>