<svg 
 xmlns="http://www.w3.org/2000/svg"
 xmlns:xlink="http://www.w3.org/1999/xlink"
 width="28px" height="28px">
<path fill-rule="evenodd"  fill="rgb(85, 85, 85)"
 d="M27.448,24.246 C27.448,24.246 17.443,14.241 17.443,14.241 C17.443,14.241 26.910,4.774 26.910,4.774 C26.910,4.774 23.360,1.224 23.360,1.224 C23.360,1.224 13.893,10.691 13.893,10.691 C13.893,10.691 3.888,0.686 3.888,0.686 C3.888,0.686 0.446,4.129 0.446,4.129 C0.446,4.129 10.451,14.134 10.451,14.134 C10.451,14.134 0.930,23.654 0.930,23.654 C0.930,23.654 4.426,27.151 4.426,27.151 C4.426,27.151 13.947,17.630 13.947,17.630 C13.947,17.630 24.006,27.689 24.006,27.689 C24.006,27.689 27.448,24.246 27.448,24.246 Z"/>
</svg>