<?xml version="1.0" encoding="utf-8"?>
<svg xmlns="http://www.w3.org/2000/svg"
	xmlns:xlink="http://www.w3.org/1999/xlink"
	width="16px" height="16px" viewBox="0 0 16 16">
<path fillRule="evenodd" d="M 15.68 14.12C 15.68 14.12 12.26 10.7 12.26 10.7 13.05 9.59 13.53 8.23 13.53 6.77 13.53 3.03 10.5 0 6.77 0 3.03 0 0 3.03 0 6.77 0 10.5 3.03 13.53 6.77 13.53 8.23 13.53 9.59 13.05 10.7 12.26 10.7 12.26 14.12 15.68 14.12 15.68 14.55 16.11 15.25 16.11 15.68 15.68 16.11 15.25 16.11 14.55 15.68 14.12ZM 6.77 11.4C 3.37 11.4 2.13 8.94 2.13 6.77 2.13 4.26 3.79 2.13 6.77 2.13 9.88 2.13 11.4 4.45 11.4 6.77 11.4 9.36 9.36 11.4 6.77 11.4Z" fill="rgb(167,35,61)"/></svg>