<?xml version="1.0" encoding="UTF-8"?>
<svg width="37px" height="34px" viewBox="0 0 37 34" version="1.1" xmlns="http://www.w3.org/2000/svg" xmlns:xlink="http://www.w3.org/1999/xlink">
    <!-- Generator: Sketch 43 (38999) - http://www.bohemiancoding.com/sketch -->
    <title>directions</title>
    <desc>Created with Sketch.</desc>
    <defs></defs>
    <g id="Welcome" stroke="none" stroke-width="1" fill="none" fill-rule="evenodd">
        <g id="dana-mebel" transform="translate(-196.000000, -471.000000)" fill-rule="nonzero" fill="#A71E3B">
            <g id="Group" transform="translate(196.000000, 463.000000)">
                <g id="directions" transform="translate(0.000000, 8.000000)">
                    <path d="M18.9995,12.4090755 L31.9709101,12.4090755 L36.9596742,6.24593353 L31.9709101,0.0827915408 L18.9995,0.0827915408 L16.9208483,0.0827915408 L16.9208483,7.27312387 L4.98876404,7.27312387 L0,13.4362659 L4.98876404,19.5994079 L16.9208483,19.5994079 L16.9208483,31.9256918 L8.86607303,31.9256918 L8.86607303,33.9800725 L27.0542753,33.9800725 L27.0542753,31.9256918 L18.9995,31.9256918 L18.9995,19.5994079 L18.9995,12.4090755 L18.9995,12.4090755 Z M18.9995,2.13717221 L30.9719101,2.13717221 L34.2977528,6.24593353 L30.9719101,10.3546949 L18.9995,10.3546949 L18.9995,7.27312387 L18.9995,2.13717221 L18.9995,2.13717221 Z M5.98776404,17.5450272 L2.66192135,13.4362659 L5.98776404,9.32750453 L16.9208483,9.32750453 L16.9208483,12.4090755 L16.9208483,17.5450272 L5.98776404,17.5450272 Z" id="Shape"></path>
                </g>
            </g>
        </g>
    </g>
</svg>