<?xml version="1.0" encoding="UTF-8"?>
<svg width="55px" height="25px" viewBox="0 0 55 25" version="1.1" xmlns="http://www.w3.org/2000/svg" xmlns:xlink="http://www.w3.org/1999/xlink">
    <!-- Generator: Sketch 43 (38999) - http://www.bohemiancoding.com/sketch -->
    <title>car</title>
    <desc>Created with Sketch.</desc>
    <defs></defs>
    <g id="Welcome" stroke="none" stroke-width="1" fill="none" fill-rule="evenodd">
        <g id="dana-mebel" transform="translate(-196.000000, -754.000000)" fill-rule="nonzero" fill="#A81E3C">
            <g id="Group-Copy" transform="translate(196.000000, 742.000000)">
                <g id="car" transform="translate(0.000000, 12.000000)">
                    <path d="M43.0833691,15.8722458 C40.5561621,15.8722458 38.5,17.8997881 38.5,20.3920551 C38.5,22.8842161 40.5560547,24.9118644 43.0833691,24.9118644 C45.6105762,24.9118644 47.6667383,22.884322 47.6667383,20.3920551 C47.6666309,17.8998941 45.6105762,15.8722458 43.0833691,15.8722458 Z M43.0833691,23.1039195 C41.5672168,23.1039195 40.3333691,21.8871822 40.3333691,20.3920551 C40.3333691,18.896928 41.5672168,17.6801907 43.0833691,17.6801907 C44.5995215,17.6801907 45.8333691,18.896928 45.8333691,20.3920551 C45.8333691,21.8871822 44.5995215,23.1039195 43.0833691,23.1039195 Z" id="Shape"></path>
                    <path d="M11.9166309,15.8722458 C9.38942383,15.8722458 7.33326172,17.8997881 7.33326172,20.3920551 C7.33326172,22.8842161 9.38931641,24.9118644 11.9166309,24.9118644 C14.4438379,24.9118644 16.5,22.884322 16.5,20.3920551 C16.5,17.8998941 14.4439453,15.8722458 11.9166309,15.8722458 Z M11.9166309,23.1039195 C10.4004785,23.1039195 9.16663086,21.8871822 9.16663086,20.3920551 C9.16663086,18.896928 10.4004785,17.6801907 11.9166309,17.6801907 C13.4327832,17.6801907 14.6666309,18.896928 14.6666309,20.3920551 C14.6666309,21.8871822 13.4327832,23.1039195 11.9166309,23.1039195 Z" id="Shape"></path>
                    <path d="M54.0833691,15.8722458 L54.0833691,10.4485169 C54.0833691,10.0588983 53.83125,9.71355932 53.4563477,9.59067797 L48.2835547,7.89036017 C46.3356738,4.63707627 43.6580762,1.54099576 37.740957,0.518644068 C37.73,0.51684322 37.7189355,0.515042373 37.7079785,0.513241525 C26.7813477,-0.976483051 18.5771094,1.45423729 13.31,7.74036017 C7.22057617,7.82711864 0.916630859,9.72086864 0.916630859,13.1603814 L0.916630859,15.8722458 C0.410673828,15.8722458 0,16.2772246 0,16.7761653 L0,20.3919492 C0,20.8908898 0.410673828,21.2958686 0.916630859,21.2958686 L4.58326172,21.2958686 C5.08921875,21.2958686 5.49989258,20.8908898 5.49989258,20.3919492 C5.49989258,16.9026483 8.37826172,14.0643008 11.9165234,14.0643008 C15.4547852,14.0643008 18.3331543,16.9027542 18.3331543,20.3919492 C18.3331543,20.8908898 18.7438281,21.2958686 19.2497852,21.2958686 L35.7497852,21.2958686 C36.2557422,21.2958686 36.666416,20.8908898 36.666416,20.3919492 C36.666416,16.9026483 39.5447852,14.0643008 43.0830469,14.0643008 C46.621416,14.0643008 49.4996777,16.9027542 49.4996777,20.3919492 C49.4996777,20.8908898 49.9103516,21.2958686 50.4163086,21.2958686 L54.0829395,21.2958686 C54.5888965,21.2958686 54.9995703,20.8908898 54.9995703,20.3919492 L54.9995703,16.7761653 C55,16.2772246 54.5893262,15.8722458 54.0833691,15.8722458 Z M42.2115332,3.99067797 C43.8037402,4.95338983 44.99,6.22436441 46.0193164,7.73665254 L42.1757617,7.73665254 L42.2115332,3.99067797 Z M31.1666309,1.89618644 C33.1274023,1.87002119 35.2127832,1.99925847 37.44125,2.3029661 C38.5449023,2.49459746 39.514707,2.76673729 40.3874023,3.10476695 L40.3425,7.7375 L31.1666309,7.7375 L31.1666309,1.89618644 Z M29.3333691,1.97309322 L29.3333691,7.73760593 L15.7868262,7.73760593 C19.1849023,4.28082627 23.6655762,2.37076271 29.3333691,1.97309322 Z M53.1666309,19.4881356 L51.2828809,19.4881356 C50.8254785,15.4257415 47.3228809,12.2564619 43.0832617,12.2564619 C38.8436426,12.2564619 35.3410449,15.4257415 34.8836426,19.4881356 L20.11625,19.4881356 C19.6588477,15.4257415 16.15625,12.2564619 11.9166309,12.2564619 C7.67701172,12.2564619 4.17441406,15.4257415 3.71701172,19.4881356 L1.83336914,19.4881356 L1.83336914,17.6801907 C2.33932617,17.6801907 2.75,17.2752119 2.75,16.7762712 L2.75,14.0644068 L3.66663086,14.0644068 C4.17258789,14.0644068 4.58326172,13.659428 4.58326172,13.1604873 C4.58326172,12.6615466 4.17258789,12.2565678 3.66663086,12.2565678 L3.19182617,12.2565678 C4.43211914,10.9287076 8.22615234,9.54470339 13.75,9.54470339 L47.517207,9.54470339 L52.25,11.1004237 L52.25,12.2565678 L51.3333691,12.2565678 C50.8274121,12.2565678 50.4167383,12.6615466 50.4167383,13.1604873 C50.4167383,13.659428 50.8274121,14.0644068 51.3333691,14.0644068 L52.25,14.0644068 L52.25,16.7762712 C52.25,17.2752119 52.6606738,17.6801907 53.1666309,17.6801907 L53.1666309,19.4881356 Z" id="Shape"></path>
                </g>
            </g>
        </g>
    </g>
</svg>