<?xml version="1.0" encoding="UTF-8"?>
<svg width="37px" height="37px" viewBox="0 0 37 37" version="1.1" xmlns="http://www.w3.org/2000/svg" xmlns:xlink="http://www.w3.org/1999/xlink">
    <!-- Generator: Sketch 43 (38999) - http://www.bohemiancoding.com/sketch -->
    <title>phone-call</title>
    <desc>Created with Sketch.</desc>
    <defs></defs>
    <g id="Welcome" stroke="none" stroke-width="1" fill="none" fill-rule="evenodd">
        <g id="dana-mebel" transform="translate(-196.000000, -385.000000)" fill-rule="nonzero" fill="#A71E3C">
            <g id="Group-2" transform="translate(196.000000, 383.000000)">
                <g id="phone-call" transform="translate(0.000000, 2.000000)">
                    <path d="M35.5949395,28.9467187 L28.3450352,21.6968867 C27.479582,20.8315059 26.0717031,20.8315059 25.2061777,21.6968867 L23.3209121,23.5821523 C22.7302129,24.1728516 22.5434785,25.0162637 22.7591914,25.7675371 L22.0478809,26.4788477 C22.0476641,26.4790645 22.0475195,26.479209 22.0473027,26.4794258 C21.542166,26.9851406 18.3962266,26.2090801 14.5934648,22.4063184 C10.7912813,18.604207 10.0150039,15.4587734 10.5201406,14.9526973 C10.5201406,14.9525527 10.5202852,14.9525527 10.5202852,14.9525527 L11.2322461,14.2406641 C11.4332168,14.2984043 11.6406191,14.3278887 11.848166,14.3278887 C12.4165352,14.3278887 12.984832,14.1115977 13.4176309,13.6789434 L15.3028965,11.7936777 C16.1682773,10.9282969 16.1682773,9.5203457 15.3028965,8.65489258 L8.05299219,1.40491602 C7.63385156,0.985775391 7.0764668,0.754958984 6.48367188,0.754958984 C5.89073242,0.754958984 5.33356445,0.985919922 4.91435156,1.40491602 L3.02894141,3.29032617 C2.43824219,3.88102539 2.25150781,4.72450977 2.4672207,5.47571094 C2.4672207,5.47571094 1.86423633,6.08447656 1.83424609,6.12292187 C-0.171341797,8.35224414 -0.547628906,11.8621133 0.781986328,16.0585059 C2.08399609,20.1673125 4.89079297,24.5199434 8.68546094,28.3143945 C12.4799844,32.108918 16.8326152,34.9157148 20.9414219,36.2178691 C22.5919688,36.7408555 24.1360684,37 25.5382383,37 C27.8372246,37 29.753998,36.3027812 31.1279844,34.9288672 L31.5235664,34.5332852 C31.7215742,34.5902305 31.9283984,34.6209434 32.1401367,34.6209434 C32.7330762,34.6209434 33.2903887,34.3899824 33.709457,33.9709863 L35.5948672,32.0855762 C36.460248,31.2201953 36.460248,29.8121719 35.5949395,28.9467187 Z M6.48367188,2.97423633 L13.7336484,10.2242852 L11.8493945,12.1105625 C11.8493945,12.1105625 11.8490332,12.1102012 11.8483828,12.1095508 L11.8212832,12.0824512 L8.22339453,8.4845625 L4.59833398,4.85964648 L6.48367188,2.97423633 Z M29.5587363,33.3594746 C29.5585918,33.3596191 29.5585195,33.3596914 29.558375,33.3598359 C27.9617383,34.9562559 25.1396211,35.2199531 21.6119746,34.1020039 C17.8359512,32.9054297 13.8025898,30.2925937 10.254998,26.7449297 C6.70726172,23.1972656 4.09442578,19.1640488 2.89792383,15.3879531 C1.77997461,11.8601621 2.04367188,9.03797266 3.64045313,7.44111914 L3.64059766,7.44097461 L3.84077344,7.24079883 L9.4671582,12.8671113 L8.95110938,13.3831602 C8.95074805,13.3835215 8.95045898,13.3839551 8.95002539,13.3843887 C6.81204688,15.525041 9.38094531,20.3325117 13.0242168,23.9757832 C15.7510879,26.7026543 19.1301563,28.8276973 21.5552461,28.8276973 C22.3706914,28.8276973 23.0783164,28.5874141 23.6168398,28.0488184 C23.6170566,28.0486016 23.6172012,28.048457 23.617418,28.0482402 L24.1328887,27.5327695 L29.7592734,33.159082 L29.5587363,33.3594746 Z M32.1402813,32.4015938 L24.8903047,25.1516172 L26.7755703,23.2663516 L34.0255469,30.5161836 C34.0255469,30.5161836 32.1409316,32.4022441 32.1402813,32.4015938 Z" id="Shape"></path>
                    <path d="M28.0981758,8.90196875 C25.9873691,6.79116211 23.1810781,5.62876953 20.1963633,5.6288418 C19.5834785,5.6288418 19.0866523,6.12566797 19.0866523,6.73855273 C19.0866523,7.3514375 19.5835508,7.84826367 20.1963633,7.84826367 C22.5883555,7.84811914 24.8371895,8.77976758 26.5288555,10.4712891 C28.2203047,12.1627383 29.1517363,14.4115723 29.1516641,16.8034922 C29.1516641,17.416377 29.6484902,17.9133477 30.261375,17.9133477 C30.8741875,17.9133477 31.3710859,17.4165215 31.3710859,16.8037813 C31.3711582,13.8189219 30.2086934,11.0127754 28.0981758,8.90196875 Z" id="Shape"></path>
                    <path d="M32.0783496,4.92179492 C28.9042266,1.74781641 24.6843477,-0.00014453125 20.1959297,0 C19.5830449,0 19.0862187,0.496898438 19.0862187,1.10971094 C19.0862187,1.7225957 19.5831172,2.21942188 20.1959297,2.21942188 C24.0915527,2.21927734 27.7540469,3.73642188 30.5088848,6.49111523 C33.2635059,9.24573633 34.7805781,12.9082305 34.7805059,16.8038535 C34.7805059,17.4167383 35.277332,17.9135645 35.8902168,17.9135645 C36.5030293,17.9135645 36.9999277,17.4167383 36.9999277,16.803998 C37.0000723,12.3154355 35.2521113,8.09570117 32.0783496,4.92179492 Z" id="Shape"></path>
                    <path d="M24.1177129,12.8820703 C23.0549746,11.819332 21.6993438,11.2577559 20.1968691,11.2577559 L20.1964355,11.2577559 C19.5835508,11.2579004 19.0867246,11.7546543 19.0868691,12.3676113 C19.0870137,12.9804961 19.5839121,13.4773223 20.1967246,13.4771777 L20.1970859,13.4771777 C21.1108125,13.4771777 21.9020488,13.8049746 22.5485371,14.4513906 C23.1858477,15.0887734 23.52275,15.902123 23.5226055,16.8032031 C23.5224609,17.4160879 24.0194316,17.9129141 24.6321719,17.9130586 L24.6323164,17.9130586 C25.2452012,17.9130586 25.7418828,17.4162324 25.7420273,16.8034922 C25.7420996,15.3009453 25.1805234,13.9449531 24.1177129,12.8820703 Z" id="Shape"></path>
                </g>
            </g>
        </g>
    </g>
</svg>