<?xml version="1.0" encoding="UTF-8"?>
<svg width="27px" height="31px" viewBox="0 0 27 31" version="1.1" xmlns="http://www.w3.org/2000/svg" xmlns:xlink="http://www.w3.org/1999/xlink">
    <!-- Generator: Sketch 44.1 (41455) - http://www.bohemiancoding.com/sketch -->
    <title>wardrobe</title>
    <desc>Created with Sketch.</desc>
    <defs></defs>
    <g id="pages" stroke="none" stroke-width="1" fill="none" fill-rule="evenodd">
        <g id="home" transform="translate(-120.000000, -853.000000)" fill-rule="nonzero" fill="#004583">
            <g id="Group-24" transform="translate(91.000000, 198.000000)">
                <g id="Group-19" transform="translate(13.000000, 16.000000)">
                    <g id="Group-23" transform="translate(16.000000, 639.000000)">
                        <g id="wardrobe">
                            <path d="M0.0505488722,0 L0.0505488722,30.9946623 L26.9441729,30.9946623 L26.9441729,0 L0.0505488722,0 Z M9.33090226,12.2145475 L17.6638195,3.78754305 L17.6638195,5.45032009 L9.33090226,13.8773245 L9.33090226,12.2145475 Z M9.33090226,14.5548079 L17.6638195,6.12780353 L17.6638195,17.6947042 L9.33090226,26.1216402 L9.33090226,14.5548079 Z M9.33090226,26.7991921 L17.6638872,18.3721876 L17.6638872,29.2059691 L9.33090226,29.2059691 L9.33090226,26.7991921 Z M17.6638195,0.479028698 L17.6638195,3.11012804 L9.33090226,11.537064 L9.33090226,0.479028698 L17.6638195,0.479028698 Z M0.524233083,0.479028698 L8.85721805,0.479028698 L8.85721805,29.2059007 L0.524233083,29.2059007 L0.524233083,0.479028698 Z M26.4704887,30.5156336 L0.524233083,30.5156336 L0.524233083,29.6849294 L26.4704887,29.6849294 L26.4704887,30.5156336 Z M18.1375038,29.2059007 L18.1375038,0.479028698 L26.4704887,0.479028698 L26.4704887,29.2059007 L18.1375038,29.2059007 Z" id="Shape"></path>
                            <rect id="Rectangle-path" x="1.05448872" y="13.7275938" width="1" height="2.22974172"></rect>
                            <rect id="Rectangle-path" x="25.4665489" y="13.7275938" width="1" height="2.22974172"></rect>
                        </g>
                    </g>
                </g>
            </g>
        </g>
    </g>
</svg>