<?xml version="1.0" encoding="UTF-8"?>
<svg width="40px" height="34px" viewBox="0 0 40 34" version="1.1" xmlns="http://www.w3.org/2000/svg" xmlns:xlink="http://www.w3.org/1999/xlink">
    <!-- Generator: Sketch 43 (38999) - http://www.bohemiancoding.com/sketch -->
    <title>directional-sign</title>
    <desc>Created with Sketch.</desc>
    <defs></defs>
    <g id="Welcome" stroke="none" stroke-width="1" fill="none" fill-rule="evenodd">
        <g id="юг-мебель" transform="translate(-150.000000, -481.000000)" fill-rule="nonzero" fill="#F49B00">
            <g id="Group-4" transform="translate(150.000000, 474.000000)">
                <g id="directional-sign" transform="translate(0.000000, 7.000000)">
                    <path d="M17,0 L15.2,0 C14.76,0 14.4,0.34 14.4,0.755555556 L14.4,7.93333333 L7.328,7.93333333 C6.9976,7.93333333 6.588,8.00435556 6.194,8.11957778 C5.7996,8.23366667 5.4204,8.39195556 5.1524,8.56611111 L0.4024,11.645 C0.134,11.8187778 0,12.0484667 0,12.2777778 C0,12.5070889 0.134,12.7356444 0.4024,12.9101778 L5.1524,15.9894444 C5.4208,16.1632222 5.7996,16.3215111 6.194,16.4363556 C6.5884,16.5512 6.998,16.6222222 7.328,16.6222222 L14.4,16.6222222 L14.4,33.2444444 C14.4,33.66 14.76,34 15.2,34 L17,34 C17.44,34 17.8,33.66 17.8,33.2444444 L17.8,0.755555556 C17.8,0.34 17.44,0 17,0 Z M39.5972,7.86797778 L34.8472,4.78833333 C34.5788,4.61417778 34.2,4.45626667 33.8056,4.34104444 C33.4112,4.22657778 33.0016,4.15555556 32.6716,4.15555556 L19,4.15555556 L20.6012,12.8444444 L32.6716,12.8444444 C33.0016,12.8444444 33.4116,12.7734222 33.8056,12.6585778 C34.2,12.5441111 34.5792,12.3858222 34.8472,12.2120444 L39.5972,9.1324 C39.8656,8.95824444 40,8.72968889 40,8.5 C40,8.27068889 39.8656,8.04175556 39.5972,7.86797778 Z" id="Shape"></path>
                </g>
            </g>
        </g>
    </g>
</svg>