<?xml version="1.0" encoding="UTF-8"?>
<svg width="52px" height="43px" viewBox="0 0 52 43" version="1.1" xmlns="http://www.w3.org/2000/svg" xmlns:xlink="http://www.w3.org/1999/xlink">
    <!-- Generator: Sketch 43 (38999) - http://www.bohemiancoding.com/sketch -->
    <title>car</title>
    <desc>Created with Sketch.</desc>
    <defs></defs>
    <g id="Welcome" stroke="none" stroke-width="1" fill="none" fill-rule="evenodd">
        <g id="юг-мебель" transform="translate(-181.000000, -889.000000)" fill-rule="nonzero">
            <g id="car" transform="translate(181.000000, 889.000000)">
                <g id="Group" transform="translate(0.000000, 8.359718)" fill="#FF2E26">
                    <path d="M5.26060606,2.69899461 L5.26060606,0.776259512 C5.26060606,0.370216075 4.93333333,0.0477698161 4.52121212,0.0477698161 L2.33939394,0.0477698161 C1.05454545,0.0477698161 0,1.07482086 0,2.35266344 C0,3.61856357 1.04242424,4.65755707 2.33939394,4.65755707 L6.31515152,4.65755707 L6.31515152,2.69899461 L5.26060606,2.69899461 L5.26060606,2.69899461 Z" id="Shape"></path>
                    <path d="M46.7393939,2.69899461 L46.7393939,0.776259512 C46.7393939,0.370216075 47.0666667,0.0477698161 47.4787879,0.0477698161 L49.6606061,0.0477698161 C50.9454545,0.0477698161 52,1.07482086 52,2.35266344 C52,3.61856357 50.9575758,4.65755707 49.6606061,4.65755707 L45.6848485,4.65755707 L45.6848485,2.69899461 L46.7393939,2.69899461 L46.7393939,2.69899461 Z" id="Shape"></path>
                </g>
                <g id="Group" transform="translate(0.727273, 27.825918)" fill="#333842">
                    <path d="M0.0484848485,0.0716547242 L0.0484848485,13.2083542 C0.0484848485,13.8054769 0.545454545,14.2951175 1.15151515,14.2951175 L6.4,14.2951175 C7.00606061,14.2951175 7.5030303,13.8054769 7.5030303,13.2083542 L7.5030303,0.0716547242 L0.0484848485,0.0716547242 Z" id="Shape"></path>
                    <path d="M43.030303,0.0716547242 L43.030303,13.2083542 C43.030303,13.8054769 43.5272727,14.2951175 44.1333333,14.2951175 L49.3818182,14.2951175 C49.9878788,14.2951175 50.4848485,13.8054769 50.4848485,13.2083542 L50.4848485,0.0716547242 L43.030303,0.0716547242 Z" id="Shape"></path>
                </g>
                <path d="M51.2606061,19.9200133 C50.569697,17.9853358 48.8242424,17.412098 48.1333333,15.3579959 C47.4424242,13.3038938 42.2181818,2.56762762 39.5636364,1.20618786 C36.9090909,-0.155251902 26,0.0597122702 26,0.0597122702 C26,0.0597122702 15.1151515,-0.167194356 12.4484848,1.20618786 C9.78181818,2.57957007 4.56969697,13.2919513 3.86666667,15.3460534 C3.17575758,17.4001555 1.43030303,17.9733933 0.739393939,19.9080709 C0.0484848485,21.8427484 1.09090909,36.3528301 2.48484848,37.3798811 C3.87878788,38.4069322 26,38.6338388 26,38.6338388 C26,38.6338388 48.1333333,38.4069322 49.5151515,37.3798811 C50.9090909,36.3528301 51.9515152,21.8546909 51.2606061,19.9200133 Z" id="Shape" fill="#FF2E26"></path>
                <path d="M40.7393939,8.41943009 L26,9.35094151 L11.2606061,8.41943009 L6.69090909,13.0172749 C6.69090909,13.0172749 13.6606061,22.4159862 14.7272727,25.0791535 C15.7939394,27.7423207 14.8,28.3633283 16,29.1276454 L26,29.1276454 L36,29.1276454 C37.2,28.3513859 36.2060606,27.7423207 37.2727273,25.0791535 C38.3393939,22.4159862 45.3090909,13.0172749 45.3090909,13.0172749 L40.7393939,8.41943009 Z" id="Shape" fill="#F55751"></path>
                <g id="Group" transform="translate(3.393939, 20.063323)" fill="#333842">
                    <path d="M31.9151515,12.0141088 L13.2969697,12.0141088 C12.2060606,12.0141088 11.3333333,12.8859079 11.3333333,13.9487863 C11.3333333,15.0236072 12.2181818,15.8834639 13.2969697,15.8834639 L31.9151515,15.8834639 C33.0060606,15.8834639 33.8787879,15.0116647 33.8787879,13.9487863 C33.8787879,12.8859079 33.0060606,12.0141088 31.9151515,12.0141088 Z" id="Shape"></path>
                    <path d="M0.0606060606,13.3277787 L0.775757576,10.258568 C0.945454545,9.51813587 1.63636364,9.0165528 2.4,9.07626507 L7.63636364,9.4584236 C8.72727273,9.54202077 9.38181818,10.7004388 8.86060606,11.6558351 L7.5030303,14.1756929 C7.30909091,14.5339666 6.90909091,14.7369883 6.4969697,14.7011609 L0.545454545,14.020441 C0.218181818,13.9846137 -0.0121212121,13.6621674 0.0606060606,13.3277787 Z" id="Shape"></path>
                    <path d="M45.1515152,13.3277787 L44.4363636,10.258568 C44.2666667,9.51813587 43.5757576,9.0165528 42.8121212,9.07626507 L37.5757576,9.4584236 C36.4848485,9.54202077 35.830303,10.7004388 36.3515152,11.6558351 L37.7090909,14.1756929 C37.9030303,14.5339666 38.3030303,14.7369883 38.7151515,14.7011609 L44.6666667,14.020441 C44.9939394,13.9846137 45.2242424,13.6621674 45.1515152,13.3277787 Z" id="Shape"></path>
                    <path d="M21.5636364,5.36216186 L13.2,5.36216186 C12.630303,5.36216186 12.1575758,4.90834861 12.1575758,4.33511081 L12.1575758,0.501583069 C12.1575758,0.238849081 12.3757576,0.0358273621 12.630303,0.0358273621 L21.5515152,0.0358273621 C21.8181818,0.0358273621 22.0242424,0.250791535 22.0242424,0.501583069 L22.0242424,4.8844637 C22.0484848,5.15914014 21.830303,5.36216186 21.5636364,5.36216186 Z" id="Shape"></path>
                    <path d="M23.6484848,5.36216186 L32.0121212,5.36216186 C32.5818182,5.36216186 33.0545455,4.90834861 33.0545455,4.33511081 L33.0545455,0.501583069 C33.0545455,0.238849081 32.8363636,0.0358273621 32.5818182,0.0358273621 L23.6606061,0.0358273621 C23.3939394,0.0358273621 23.1878788,0.250791535 23.1878788,0.501583069 L23.1878788,4.8844637 C23.1636364,5.15914014 23.3818182,5.36216186 23.6484848,5.36216186 Z" id="Shape"></path>
                    <path d="M32.5818182,6.35338555 L12.6787879,6.35338555 C12.2181818,6.35338555 11.9151515,6.84302616 12.1454545,7.2490696 L12.7636364,8.32389046 C12.8727273,8.51496973 13.0787879,8.63439427 13.2969697,8.63439427 L31.9757576,8.63439427 C32.1939394,8.63439427 32.4,8.51496973 32.5090909,8.32389046 L33.1272727,7.2490696 C33.3454545,6.84302616 33.0545455,6.35338555 32.5818182,6.35338555 Z" id="Shape"></path>
                </g>
                <g id="Group" transform="translate(2.545455, 18.988502)" fill="#FFFFFC">
                    <path d="M9.89090909,4.69338444 L2.42424242,4.69338444 C1.13939394,4.69338444 0.096969697,3.66633339 0.096969697,2.40043326 L0.096969697,2.40043326 C0.096969697,0.943453869 1.45454545,-0.131366994 2.8969697,0.155251902 L9.49090909,1.51669166 C10.2666667,1.67194356 10.8848485,2.22129645 11.1515152,2.94978615 L11.1515152,2.94978615 C11.4424242,3.80964284 10.8,4.69338444 9.89090909,4.69338444 Z" id="Shape"></path>
                    <path d="M37.0181818,4.69338444 L44.4848485,4.69338444 C45.769697,4.69338444 46.8121212,3.66633339 46.8121212,2.40043326 L46.8121212,2.40043326 C46.8121212,0.943453869 45.4545455,-0.131366994 44.0121212,0.155251902 L37.4181818,1.51669166 C36.6424242,1.67194356 36.0242424,2.22129645 35.7575758,2.94978615 L35.7575758,2.94978615 C35.4666667,3.80964284 36.1090909,4.69338444 37.0181818,4.69338444 Z" id="Shape"></path>
                </g>
                <path d="M40.0606061,2.92590124 C38.4,1.91079265 26,2.04215964 26,2.04215964 C26,2.04215964 13.6121212,1.91079265 11.9393939,2.92590124 C10.2666667,3.94100983 6.69090909,13.0292174 6.69090909,13.0292174 C10.1454545,12.205188 26,12.1454758 26,12.1454758 C26,12.1454758 41.8545455,12.205188 45.3090909,13.0292174 C45.3090909,13.0172749 41.7212121,3.92906738 40.0606061,2.92590124 Z" id="Shape" fill="#333842"></path>
            </g>
        </g>
    </g>
</svg>