<?xml version="1.0" encoding="UTF-8"?>
<svg width="41px" height="41px" viewBox="0 0 41 41" version="1.1" xmlns="http://www.w3.org/2000/svg" xmlns:xlink="http://www.w3.org/1999/xlink">
    <!-- Generator: Sketch 43 (38999) - http://www.bohemiancoding.com/sketch -->
    <title>alarm-clock</title>
    <desc>Created with Sketch.</desc>
    <defs></defs>
    <g id="Welcome" stroke="none" stroke-width="1" fill="none" fill-rule="evenodd">
        <g id="юг-мебель" transform="translate(-150.000000, -569.000000)" fill-rule="nonzero">
            <g id="Group-3" transform="translate(150.000000, 569.000000)">
                <g id="alarm-clock">
                    <circle id="Oval" fill="#FFFFFF" cx="20.5561053" cy="20.2532807" r="10.7894737"></circle>
                    <path d="M20.5561053,40.3936316 C9.45085965,40.3936316 0.415754386,31.3585263 0.415754386,20.2532807 C0.415754386,9.14803509 9.45085965,0.112929825 20.5561053,0.112929825 C31.6613509,0.112929825 40.6964561,9.14803509 40.6964561,20.2532807 C40.6964561,31.3585263 31.6620702,40.3936316 20.5561053,40.3936316 Z M20.5561053,2.99012281 C11.0369123,2.99012281 3.29294737,10.734807 3.29294737,20.2532807 C3.29294737,29.7717544 11.0369123,37.5164386 20.5561053,37.5164386 C30.0752982,37.5164386 37.8192632,29.7717544 37.8192632,20.2532807 C37.8192632,10.734807 30.0752982,2.99012281 20.5561053,2.99012281 Z" id="Shape" fill="#EBBD00"></path>
                    <g id="Group" transform="translate(3.596491, 3.596491)" fill="#F49B00">
                        <path d="M16.959614,0.0258947368 C16.5625614,0.0258947368 16.2403158,0.347421053 16.2403158,0.745192982 L16.2403158,1.46449123 C16.2403158,1.86226316 16.5625614,2.18378947 16.959614,2.18378947 C17.3566667,2.18378947 17.6789123,1.86226316 17.6789123,1.46449123 L17.6789123,0.745192982 C17.6789123,0.347421053 17.357386,0.0258947368 16.959614,0.0258947368 Z" id="Shape"></path>
                        <path d="M16.959614,30.9557193 C16.5625614,30.9557193 16.2403158,31.2772456 16.2403158,31.6750175 L16.2403158,32.3943158 C16.2403158,32.7920877 16.5625614,33.113614 16.959614,33.113614 C17.3566667,33.113614 17.6789123,32.7920877 17.6789123,32.3943158 L17.6789123,31.6750175 C17.6789123,31.2772456 17.357386,30.9557193 16.959614,30.9557193 Z" id="Shape"></path>
                        <path d="M32.7841754,15.8504561 L32.0648772,15.8504561 C31.6678246,15.8504561 31.3455789,16.1719825 31.3455789,16.5697544 C31.3455789,16.9675263 31.6678246,17.2890526 32.0648772,17.2890526 L32.7841754,17.2890526 C33.1812281,17.2890526 33.5034737,16.9675263 33.5034737,16.5697544 C33.5034737,16.1719825 33.1819474,15.8504561 32.7841754,15.8504561 Z" id="Shape"></path>
                        <path d="M1.85435088,15.8504561 L1.13505263,15.8504561 C0.738,15.8504561 0.415754386,16.1719825 0.415754386,16.5697544 C0.415754386,16.9675263 0.738,17.2890526 1.13505263,17.2890526 L1.85435088,17.2890526 C2.25140351,17.2890526 2.57364912,16.9675263 2.57364912,16.5697544 C2.57364912,16.1719825 2.25212281,15.8504561 1.85435088,15.8504561 Z" id="Shape"></path>
                        <path d="M27.6404737,4.87108772 L27.1319298,5.37963158 C26.8506842,5.66087719 26.8506842,6.11547368 27.1319298,6.3967193 C27.272193,6.53698246 27.4563333,6.60747368 27.6404737,6.60747368 C27.824614,6.60747368 28.0087544,6.53698246 28.1490175,6.3967193 L28.6575614,5.88817544 C28.938807,5.60692982 28.938807,5.15233333 28.6575614,4.87108772 C28.3763158,4.58984211 27.9217193,4.58984211 27.6404737,4.87108772 Z" id="Shape"></path>
                        <path d="M5.77021053,26.7420702 L5.26166667,27.250614 C4.98042105,27.5318596 4.98042105,27.9864561 5.26166667,28.2677018 C5.40192982,28.4079649 5.58607018,28.4784561 5.77021053,28.4784561 C5.95435088,28.4784561 6.13849123,28.4079649 6.27875439,28.2677018 L6.78729825,27.7591579 C7.06854386,27.4779123 7.06854386,27.0233158 6.78729825,26.7420702 C6.50605263,26.4608246 6.05145614,26.4615439 5.77021053,26.7420702 Z" id="Shape"></path>
                        <path d="M28.1490175,26.7420702 C27.8677719,26.4608246 27.4131754,26.4608246 27.1319298,26.7420702 C26.8506842,27.0233158 26.8506842,27.4779123 27.1319298,27.7591579 L27.6404737,28.2677018 C27.7807368,28.4079649 27.9648772,28.4784561 28.1490175,28.4784561 C28.3331579,28.4784561 28.5172982,28.4079649 28.6575614,28.2677018 C28.938807,27.9864561 28.938807,27.5318596 28.6575614,27.250614 L28.1490175,26.7420702 Z" id="Shape"></path>
                        <path d="M6.27875439,4.87108772 C5.99750877,4.58984211 5.54291228,4.58984211 5.26166667,4.87108772 C4.98042105,5.15233333 4.98042105,5.60692982 5.26166667,5.88817544 L5.77021053,6.3967193 C5.91047368,6.53698246 6.09461404,6.60747368 6.27875439,6.60747368 C6.46289474,6.60747368 6.64703509,6.53698246 6.78729825,6.3967193 C7.06854386,6.11547368 7.06854386,5.66087719 6.78729825,5.37963158 L6.27875439,4.87108772 Z" id="Shape"></path>
                    </g>
                    <path d="M28.468386,20.9725789 L22.714,20.9725789 C22.3169474,20.9725789 21.9947018,20.6510526 21.9947018,20.2532807 C21.9947018,19.8555088 22.3169474,19.5339825 22.714,19.5339825 L28.468386,19.5339825 C28.8654386,19.5339825 29.1876842,19.8555088 29.1876842,20.2532807 C29.1876842,20.6510526 28.8661579,20.9725789 28.468386,20.9725789 Z" id="Shape" fill="#424A60"></path>
                    <path d="M20.5561053,18.8146842 C20.1590526,18.8146842 19.836807,18.4931579 19.836807,18.095386 L19.836807,10.1831053 C19.836807,9.78533333 20.1590526,9.46380702 20.5561053,9.46380702 C20.9531579,9.46380702 21.2754035,9.78533333 21.2754035,10.1831053 L21.2754035,18.095386 C21.2754035,18.4924386 20.9538772,18.8146842 20.5561053,18.8146842 Z" id="Shape" fill="#424A60"></path>
                    <path d="M20.5561053,23.1304737 C18.9693333,23.1304737 17.6789123,21.8400526 17.6789123,20.2532807 C17.6789123,18.6665088 18.9693333,17.3760877 20.5561053,17.3760877 C22.1428772,17.3760877 23.4332982,18.6665088 23.4332982,20.2532807 C23.4332982,21.8400526 22.1428772,23.1304737 20.5561053,23.1304737 Z M20.5561053,18.8146842 C19.7627193,18.8146842 19.1175088,19.4598947 19.1175088,20.2532807 C19.1175088,21.0466667 19.7627193,21.6918772 20.5561053,21.6918772 C21.3494912,21.6918772 21.9947018,21.0466667 21.9947018,20.2532807 C21.9947018,19.4598947 21.3494912,18.8146842 20.5561053,18.8146842 Z" id="Shape" fill="#424A60"></path>
                </g>
            </g>
        </g>
    </g>
</svg>