<?xml version="1.0" encoding="UTF-8"?>
<svg width="33px" height="48px" viewBox="0 0 33 48" version="1.1" xmlns="http://www.w3.org/2000/svg" xmlns:xlink="http://www.w3.org/1999/xlink">
    <!-- Generator: Sketch 43 (38999) - http://www.bohemiancoding.com/sketch -->
    <title>phone-call</title>
    <desc>Created with Sketch.</desc>
    <defs></defs>
    <g id="Welcome" stroke="none" stroke-width="1" fill="none" fill-rule="evenodd">
        <g id="юг-мебель" transform="translate(-150.000000, -385.000000)" fill-rule="nonzero" fill="#FF2E26">
            <g id="Group-5" transform="translate(150.000000, 384.000000)">
                <g id="phone-call" transform="translate(0.000000, 1.000000)">
                    <path d="M11.9826915,35.971897 C11.5573831,35.971897 11.1865525,35.7565152 10.9936983,35.4409742 C10.9850847,35.4289461 10.9808339,35.4164684 10.9712136,35.4045527 C9.71933898,33.1719344 8.40291864,29.2687588 8.40291864,23.9813396 C8.40291864,18.6934707 9.7183322,14.7907447 10.9712136,12.5585761 C10.980722,12.5460984 10.9850847,12.5340703 10.9936983,12.5221546 C11.1865525,12.2051522 11.5578305,11.9907822 11.9826915,11.9907822 L11.9826915,0 C5.39275932,0 0.0504508475,10.7363747 0.0504508475,23.9812272 C0.0504508475,37.2250679 5.39275932,47.9624543 11.9826915,47.9624543 L11.9826915,35.971897 Z" id="Shape"></path>
                    <path d="M19.1420136,1.43887588 C19.1420136,1.07050117 19.0021831,0.702126464 18.722522,0.421545667 C18.442861,0.140515222 18.0767288,0 17.7101492,0 L13.4145559,0 L13.4145559,11.9906698 L17.7101492,11.9906698 C18.0767288,11.9906698 18.4427492,11.8501546 18.722522,11.5691241 C19.0021831,11.2880937 19.1420136,10.919719 19.1420136,10.5517939 L19.1420136,1.43887588 Z" id="Shape"></path>
                    <path d="M19.1420136,37.4107728 C19.1420136,37.0423981 19.0021831,36.6740234 18.722522,36.3934426 C18.442861,36.1124122 18.0767288,35.971897 17.7101492,35.971897 L13.4145559,35.971897 L13.4145559,47.9625667 L17.7101492,47.9625667 C18.0767288,47.9625667 18.4427492,47.8220515 18.722522,47.5410211 C19.0021831,47.2599906 19.1420136,46.8916159 19.1420136,46.5236909 L19.1420136,37.4107728 Z" id="Shape"></path>
                    <path d="M20.9318441,28.4782763 L19.1420136,26.6792319 C19.8589525,25.9587822 20.2540576,25.0005808 20.2540576,23.9813396 C20.2540576,22.9620984 19.8588407,22.003897 19.1420136,21.2824356 L20.9318441,19.4838407 C22.1270034,20.6853021 22.7851017,22.2820047 22.7851017,23.9813396 C22.7851017,25.6796628 22.1270034,27.276815 20.9318441,28.4782763 Z" id="Shape"></path>
                    <path d="M24.5085966,32.072993 L22.7187661,30.2743981 C24.3950542,28.5899016 25.3165932,26.3549227 25.3165932,23.9812272 C25.3165932,21.607082 24.3944949,19.3725527 22.7187661,17.6880562 L24.5085966,15.8890117 C26.6631051,18.0540703 27.8486441,20.9274379 27.8486441,23.9812272 C27.8486441,27.0341171 26.6631051,29.9080468 24.5085966,32.072993 Z" id="Shape"></path>
                    <path d="M28.0873627,35.6692834 L26.2975322,33.8696768 C28.930261,31.2240562 30.3806949,27.7122998 30.3806949,23.9812272 C30.3806949,20.2501546 28.930261,16.7374988 26.2975322,14.0918782 L28.0873627,12.2928337 C31.1993186,15.419466 32.9122983,19.5701733 32.9122983,23.9813396 C32.9127458,28.3913817 31.1992068,32.5431007 28.0873627,35.6692834 Z" id="Shape"></path>
                </g>
            </g>
        </g>
    </g>
</svg>